<?xml version="1.0" encoding="UTF-8"?>
<svg version="1.1" xmlns="http://www.w3.org/2000/svg" width="511" height="488">
<path d="M0 0 C14.16482321 -0.08032707 28.32886196 -0.06482888 42.49375749 -0.01316237 C45.78483047 -0.00127873 49.07590551 0.00930565 52.36698389 0.01957941 C62.7327073 0.05243467 73.09839619 0.09010337 83.46407479 0.13494462 C95.31692426 0.18614516 107.16966809 0.22012237 119.02261037 0.24012536 C128.29168096 0.25681663 137.56062314 0.28867475 146.82960731 0.33197147 C152.3256787 0.35730725 157.82159183 0.3763797 163.3177247 0.37934732 C168.45416275 0.38250798 173.59018138 0.40457164 178.72648859 0.44090319 C180.60009286 0.45096295 182.47374743 0.4543695 184.34737444 0.45037317 C195.60133492 0.43097324 206.20606898 0.53548383 215.92988634 7.01802874 C215.92988634 7.67802874 215.92988634 8.33802874 215.92988634 9.01802874 C216.52672228 9.27584124 217.12355822 9.53365374 217.73848009 9.79927874 C223.1418655 12.80437009 225.99297075 18.46847467 227.74238634 24.20552874 C228.16795708 25.80206382 228.56450121 27.40665403 228.92988634 29.01802874 C229.18983952 30.10092007 229.18983952 30.10092007 229.45504427 31.205688 C230.03562156 34.64426529 230.06243423 37.92149853 230.07032824 41.41001177 C230.07478492 42.51240424 230.07478492 42.51240424 230.07933164 43.63706726 C230.08798943 46.09487658 230.08952443 48.55263703 230.09101915 51.01046038 C230.09564951 52.77495728 230.10067447 54.53945318 230.10606432 56.30394793 C230.11917211 61.0956267 230.12563049 65.88729146 230.13007498 70.67898536 C230.13300923 73.67602412 230.13711477 76.67305908 230.14157915 79.67009592 C230.15525181 89.05669784 230.16491876 98.44329105 230.16878104 107.82990223 C230.17325685 118.64691413 230.19078357 129.46379935 230.21978164 140.28077275 C230.24144241 148.65296896 230.25148772 157.02512966 230.25282216 165.39735359 C230.25386734 170.39216275 230.25971341 175.3868528 230.27764177 180.38163233 C230.29419786 185.08566522 230.29624158 189.78949044 230.28750277 194.49354219 C230.28673632 196.21233539 230.29102278 197.93114009 230.30096102 199.64990473 C230.36438667 211.31064177 229.95961139 222.68135722 223.92988634 233.01802874 C223.26988634 233.01802874 222.60988634 233.01802874 221.92988634 233.01802874 C221.6939879 233.60455217 221.45808947 234.19107561 221.21504259 234.79537249 C219.63610213 237.52612363 217.94705132 238.77597436 215.36738634 240.58052874 C214.15889025 241.44871233 214.15889025 241.44871233 212.92598009 242.33443499 C206.23974387 246.091629 199.72086853 247.46539803 192.11525011 247.5250783 C191.2881225 247.54271203 190.46099488 247.56034577 189.6088028 247.57851386 C186.89979239 247.63223948 184.19099134 247.6652179 181.48164415 247.69722795 C179.55671917 247.72978788 177.63180884 247.76322497 175.70691347 247.79749155 C156.75590032 248.11330324 137.80259283 248.16617172 118.8493762 248.15235424 C114.10084219 248.14973941 109.35230964 248.15219208 104.6037755 248.15374041 C96.65795074 248.15553436 88.71213543 248.15322808 80.76631212 248.14839983 C71.67799639 248.14293992 62.58970305 248.14474373 53.50138783 248.15022624 C45.5731361 248.15481076 37.64489097 248.15538283 29.71663833 248.15278757 C25.03538523 248.15125664 20.35414255 248.15094087 15.67289019 248.15432405 C4.09131262 248.161329 -7.48901971 248.12722308 -19.07011366 248.01802874 C-19.8262212 248.0115894 -20.58232874 248.00515007 -21.36134863 247.99851561 C-25.70998484 247.95925218 -30.05721339 247.89716736 -34.40496731 247.80054498 C-36.31342986 247.76144546 -38.22222251 247.7396067 -40.13096952 247.71856165 C-50.95002546 247.42218948 -61.19561452 244.91226346 -69.07011366 237.01802874 C-70.28495741 234.83052874 -70.28495741 234.83052874 -71.07011366 233.01802874 C-71.73011366 233.01802874 -72.39011366 233.01802874 -73.07011366 233.01802874 C-77.30646977 225.11016399 -79.37993118 218.07685402 -79.33081007 209.06200457 C-79.33463562 208.30268409 -79.33846116 207.54336361 -79.34240264 206.76103342 C-79.35264983 204.23871616 -79.34875638 201.71663008 -79.34477186 199.19429827 C-79.34912293 197.3768523 -79.3543074 195.55940816 -79.36025953 193.74196672 C-79.37361842 188.8204176 -79.37423165 183.89894542 -79.37169623 178.97738171 C-79.37062438 174.86221305 -79.37551538 170.74705982 -79.38030165 166.63189447 C-79.39138614 156.91993653 -79.39184024 147.20801728 -79.38578749 137.49605608 C-79.37974822 127.49176152 -79.39205998 117.48760761 -79.41335756 107.48333704 C-79.43099609 98.88010916 -79.43697135 90.27692596 -79.43371981 81.67368066 C-79.43191037 76.5414978 -79.43450929 71.40941528 -79.44843435 66.27724886 C-79.46104469 61.44923428 -79.45903831 56.62143836 -79.44602346 51.79342699 C-79.44366509 50.02703193 -79.44636573 48.26062132 -79.45464659 46.4942441 C-79.52042758 31.36537271 -77.67886914 20.87473649 -67.48026991 9.19771624 C-57.23582783 -0.77120295 -42.09789227 0.35977277 -28.86967421 0.26924944 C-26.78093831 0.24149944 -24.69221921 0.21245909 -22.60351801 0.18221045 C-15.06917659 0.08275038 -7.53481335 0.04424695 0 0 Z M-52.50761366 32.08052874 C-56.60538358 40.56277358 -55.2095665 51.96292847 -55.18363905 61.11837053 C-55.1833563 62.49928584 -55.18351662 63.88020129 -55.18408155 65.2611165 C-55.18436611 68.97523617 -55.17852512 72.68932292 -55.1715076 76.40343499 C-55.16521669 80.29781708 -55.16466575 84.19220009 -55.16348219 88.08658648 C-55.16038568 95.44566535 -55.15219515 102.8047292 -55.1421327 110.16380149 C-55.13091912 118.54841734 -55.12544794 126.93303395 -55.12043726 135.31765544 C-55.11001097 152.55112187 -55.09244436 169.78457371 -55.07011366 187.01802874 C-53.78245423 186.06318477 -52.4962801 185.10633757 -51.21073866 184.14864397 C-50.49434217 183.61601442 -49.77794569 183.08338488 -49.03984022 182.53461504 C-46.86690761 180.86157072 -44.955301 179.07091626 -43.07011366 177.08052874 C-39.95920403 173.88521458 -36.74132551 170.92573254 -33.35917616 168.02193499 C-29.87640427 164.97302376 -26.49132736 161.81807805 -23.10624647 158.66133928 C-19.28639324 155.12616853 -19.28639324 155.12616853 -17.07011366 154.01802874 C-17.07011366 153.35802874 -17.07011366 152.69802874 -17.07011366 152.01802874 C-15.40344699 151.35136207 -13.73678033 150.6846954 -12.07011366 150.01802874 C-11.30441053 149.67384905 -10.53870741 149.32966936 -9.74980116 148.97505999 C-3.50792743 146.74581937 3.65109383 147.04557123 9.74238634 149.64302874 C16.77630494 153.6073951 22.40352027 159.70521273 28.14521837 165.29830217 C30.66531454 167.7266958 33.25779124 170.06105013 35.86738634 172.39302874 C36.66015978 173.10201311 37.45293322 173.81099749 38.26973009 174.54146624 C38.81758165 175.02873186 39.36543322 175.51599749 39.92988634 176.01802874 C47.52745116 170.6550418 54.17346607 164.3743742 60.92988634 158.01802874 C62.21864981 156.81067821 63.50771971 155.6036547 64.79707384 154.39693499 C69.55959011 149.9371062 74.32024518 145.47528209 79.07051134 141.00240374 C81.1468215 139.04733796 83.22568797 137.09502196 85.30488634 135.14302874 C85.94152208 134.54184221 86.57815783 133.94065569 87.23408556 133.32125139 C91.70321863 129.13136259 91.70321863 129.13136259 93.92988634 128.01802874 C93.92988634 127.35802874 93.92988634 126.69802874 93.92988634 126.01802874 C94.80193712 125.61584124 94.80193712 125.61584124 95.69160509 125.20552874 C97.95799749 124.00311462 99.75673207 122.63566969 101.74238634 121.01802874 C108.8730229 115.65369664 116.25226832 115.32009699 124.92988634 116.01802874 C135.96557516 117.8506702 144.58249563 128.41925162 151.93379259 136.14693499 C153.71708981 138.24599328 153.71708981 138.24599328 155.92988634 138.01802874 C155.92988634 138.67802874 155.92988634 139.33802874 155.92988634 140.01802874 C156.58988634 140.01802874 157.24988634 140.01802874 157.92988634 140.01802874 C157.92988634 140.67802874 157.92988634 141.33802874 157.92988634 142.01802874 C158.58988634 142.01802874 159.24988634 142.01802874 159.92988634 142.01802874 C159.92988634 142.67802874 159.92988634 143.33802874 159.92988634 144.01802874 C160.58988634 144.01802874 161.24988634 144.01802874 161.92988634 144.01802874 C161.92988634 144.67802874 161.92988634 145.33802874 161.92988634 146.01802874 C162.58988634 146.01802874 163.24988634 146.01802874 163.92988634 146.01802874 C163.92988634 146.67802874 163.92988634 147.33802874 163.92988634 148.01802874 C164.58988634 148.01802874 165.24988634 148.01802874 165.92988634 148.01802874 C165.92988634 148.67802874 165.92988634 149.33802874 165.92988634 150.01802874 C167.43274021 151.56021933 167.43274021 151.56021933 169.40644884 153.15474749 C173.83283983 156.92000352 178.08025035 160.84134683 182.30488634 164.83052874 C183.04368029 165.52686419 183.78247423 166.22319963 184.54365587 166.94063616 C190.68222728 172.74519509 196.81767805 178.58117242 202.56269884 184.77974749 C203.86951482 186.24179586 203.86951482 186.24179586 205.92988634 186.01802874 C205.97668137 167.67624547 206.01191189 149.33447778 206.03351068 130.99264765 C206.04380753 122.47553428 206.05783734 113.95845808 206.08076525 105.44136858 C206.10074796 98.01477656 206.11361434 90.58821148 206.11806333 83.16159332 C206.12066246 79.2320784 206.12673816 75.3026405 206.14134645 71.37315035 C206.15500763 67.66810863 206.15909188 63.96317504 206.1561017 60.25811052 C206.1569069 58.26330476 206.1676236 56.26851055 206.17872667 54.27373552 C206.27521088 40.14890594 206.27521088 40.14890594 199.92988634 28.01802874 C194.26211867 24.96569311 189.58574464 24.58729329 183.22042894 24.63034868 C182.26045769 24.62496314 181.30048644 24.61957761 180.31142515 24.61402887 C177.10411729 24.5997548 173.89722247 24.60685178 170.68989611 24.613976 C168.38659887 24.60827217 166.08330446 24.60130787 163.78001451 24.59317827 C157.53005045 24.5752336 151.28022668 24.57641772 145.03024459 24.58212066 C139.8114478 24.58521049 134.59267804 24.57912235 129.3738851 24.57308191 C116.35826556 24.55823107 103.34272483 24.56185382 90.32710557 24.57394522 C79.03263711 24.58387741 67.73833247 24.57093591 56.44388927 24.54701103 C44.83612232 24.52260838 33.22843845 24.51341452 21.62064642 24.51966375 C15.10798346 24.52303521 8.59545586 24.52060545 2.08281183 24.50341272 C-4.04122278 24.48795148 -10.16494444 24.49189043 -16.28896666 24.51071787 C-18.5351291 24.51440592 -20.78131468 24.51128905 -23.02745581 24.50083208 C-26.09655559 24.4876358 -29.1646173 24.49915837 -32.23367262 24.51682329 C-33.1199679 24.50721829 -34.00626318 24.49761328 -34.91941589 24.48771721 C-42.21435356 24.57395405 -47.86339694 26.24548722 -52.50761366 32.08052874 Z " fill="#74747C" transform="translate(176.07011365890503,113.9819712638855)"/>
<path d="M0 0 C8.18973085 4.74493226 13.72427146 11.38709111 16.4375 20.5 C18.19831651 29.32997692 17.79014327 37.95386749 13.125 45.8125 C10.89146266 49.08044844 8.35343732 51.81426825 5.4375 54.5 C4.99664062 54.995 4.55578125 55.49 4.1015625 56 C-1.408328 60.96666186 -9.78752721 62.1315244 -16.93359375 61.81640625 C-24.90987635 60.8564079 -30.52366234 57.67803843 -36.5625 52.5 C-37.47 51.736875 -38.3775 50.97375 -39.3125 50.1875 C-46.23219265 41.92231156 -46.63949023 32.9803619 -45.83740234 22.56445312 C-45.21173819 17.86585977 -43.29342443 14.29416435 -40.5625 10.5 C-40.15128906 9.85933594 -39.74007812 9.21867188 -39.31640625 8.55859375 C-30.34121192 -3.77231122 -13.25579312 -6.03893454 0 0 Z " fill="#77777E" transform="translate(210.5625,178.5)"/>
<path d="M0 0 C0.33 0.66 0.66 1.32 1 2 C0.19949219 1.67515625 -0.60101563 1.3503125 -1.42578125 1.015625 C-5.78802086 -0.22391849 -9.68143173 -0.29385468 -14.1875 -0.25 C-14.99380859 -0.25773438 -15.80011719 -0.26546875 -16.63085938 -0.2734375 C-17.79391602 -0.26957031 -17.79391602 -0.26957031 -18.98046875 -0.265625 C-19.68067139 -0.26336914 -20.38087402 -0.26111328 -21.10229492 -0.25878906 C-23.3298143 -0.09587036 -23.3298143 -0.09587036 -26 2 C-28.1875 1.625 -28.1875 1.625 -30 1 C-20.25546865 -4.09373229 -10.06716144 -4.9386075 0 0 Z " fill="#C3C2C6" transform="translate(309,232)"/>
<path d="M0 0 C0.66 0.33 1.32 0.66 2 1 C1.07347299 2.17539996 0.13336613 3.34010577 -0.8125 4.5 C-1.33457031 5.1496875 -1.85664063 5.799375 -2.39453125 6.46875 C-4 8 -4 8 -7 8 C-7 7.34 -7 6.68 -7 6 C-5.46875 4.4921875 -5.46875 4.4921875 -3.5 2.875 C-2.8503125 2.33617187 -2.200625 1.79734375 -1.53125 1.2421875 C-1.0259375 0.83226562 -0.520625 0.42234375 0 0 Z " fill="#C2C4C4" transform="translate(277,234)"/>
<path d="" fill="#FFFFFF" transform="translate(0,0)"/>
<path d="" fill="#FFFFFF" transform="translate(0,0)"/>
<path d="" fill="#FFFFFF" transform="translate(0,0)"/>
<path d="" fill="#FFFFFF" transform="translate(0,0)"/>
<path d="" fill="#FFFFFF" transform="translate(0,0)"/>
<path d="" fill="#FFFFFF" transform="translate(0,0)"/>
<path d="" fill="#FFFFFF" transform="translate(0,0)"/>
<path d="" fill="#FFFFFF" transform="translate(0,0)"/>
<path d="" fill="#FFFFFF" transform="translate(0,0)"/>
<path d="" fill="#FFFFFF" transform="translate(0,0)"/>
<path d="" fill="#FFFFFF" transform="translate(0,0)"/>
<path d="" fill="#FFFFFF" transform="translate(0,0)"/>
<path d="" fill="#FFFFFF" transform="translate(0,0)"/>
<path d="" fill="#FFFFFF" transform="translate(0,0)"/>
<path d="" fill="#FFFFFF" transform="translate(0,0)"/>
<path d="" fill="#FFFFFF" transform="translate(0,0)"/>
<path d="" fill="#FFFFFF" transform="translate(0,0)"/>
<path d="" fill="#FFFFFF" transform="translate(0,0)"/>
<path d="" fill="#FFFFFF" transform="translate(0,0)"/>
<path d="" fill="#FFFFFF" transform="translate(0,0)"/>
<path d="" fill="#FFFFFF" transform="translate(0,0)"/>
<path d="" fill="#FFFFFF" transform="translate(0,0)"/>
<path d="" fill="#FFFFFF" transform="translate(0,0)"/>
<path d="" fill="#FFFFFF" transform="translate(0,0)"/>
<path d="" fill="#FFFFFF" transform="translate(0,0)"/>
<path d="" fill="#FFFFFF" transform="translate(0,0)"/>
<path d="" fill="#FFFFFF" transform="translate(0,0)"/>
<path d="" fill="#FFFFFF" transform="translate(0,0)"/>
<path d="" fill="#FFFFFF" transform="translate(0,0)"/>
<path d="" fill="#FFFFFF" transform="translate(0,0)"/>
<path d="" fill="#FFFFFF" transform="translate(0,0)"/>
<path d="" fill="#FFFFFF" transform="translate(0,0)"/>
<path d="" fill="#FFFFFF" transform="translate(0,0)"/>
<path d="" fill="#FFFFFF" transform="translate(0,0)"/>
<path d="" fill="#FFFFFF" transform="translate(0,0)"/>
<path d="" fill="#FFFFFF" transform="translate(0,0)"/>
<path d="" fill="#FFFFFF" transform="translate(0,0)"/>
<path d="" fill="#FFFFFF" transform="translate(0,0)"/>
<path d="" fill="#FFFFFF" transform="translate(0,0)"/>
<path d="" fill="#FFFFFF" transform="translate(0,0)"/>
<path d="" fill="#FFFFFF" transform="translate(0,0)"/>
<path d="" fill="#FFFFFF" transform="translate(0,0)"/>
<path d="" fill="#FFFFFF" transform="translate(0,0)"/>
<path d="" fill="#FFFFFF" transform="translate(0,0)"/>
<path d="" fill="#FFFFFF" transform="translate(0,0)"/>
<path d="" fill="#FFFFFF" transform="translate(0,0)"/>
<path d="" fill="#FFFFFF" transform="translate(0,0)"/>
<path d="" fill="#FFFFFF" transform="translate(0,0)"/>
<path d="" fill="#FFFFFF" transform="translate(0,0)"/>
<path d="" fill="#FFFFFF" transform="translate(0,0)"/>
<path d="" fill="#FFFFFF" transform="translate(0,0)"/>
<path d="" fill="#FFFFFF" transform="translate(0,0)"/>
<path d="" fill="#FFFFFF" transform="translate(0,0)"/>
<path d="" fill="#FFFFFF" transform="translate(0,0)"/>
<path d="" fill="#FFFFFF" transform="translate(0,0)"/>
<path d="" fill="#FFFFFF" transform="translate(0,0)"/>
<path d="" fill="#FFFFFF" transform="translate(0,0)"/>
<path d="" fill="#FFFFFF" transform="translate(0,0)"/>
<path d="" fill="#FFFFFF" transform="translate(0,0)"/>
<path d="" fill="#FFFFFF" transform="translate(0,0)"/>
<path d="" fill="#FFFFFF" transform="translate(0,0)"/>
<path d="" fill="#FFFFFF" transform="translate(0,0)"/>
<path d="" fill="#FFFFFF" transform="translate(0,0)"/>
<path d="" fill="#FFFFFF" transform="translate(0,0)"/>
<path d="" fill="#FFFFFF" transform="translate(0,0)"/>
<path d="" fill="#FFFFFF" transform="translate(0,0)"/>
<path d="" fill="#FFFFFF" transform="translate(0,0)"/>
<path d="" fill="#FFFFFF" transform="translate(0,0)"/>
</svg>
