<?xml version="1.0" standalone="no"?>
<!DOCTYPE svg PUBLIC "-//W3C//DTD SVG 20010904//EN"
 "http://www.w3.org/TR/2001/REC-SVG-20010904/DTD/svg10.dtd">
<svg version="1.0" xmlns="http://www.w3.org/2000/svg"
 width="509.000000pt" height="491.000000pt" viewBox="0 0 509.000000 491.000000"
 preserveAspectRatio="xMidYMid meet">

<g transform="translate(0.000000,491.000000) scale(0.100000,-0.100000)"
fill="#000000" stroke="none">
<path d="M3995 3799 c-27 -21 -72 -57 -100 -78 -27 -22 -95 -76 -150 -120 -55
-45 -125 -101 -155 -124 -30 -24 -111 -88 -180 -143 -143 -113 -155 -123 -282
-221 -51 -40 -109 -85 -128 -101 -19 -15 -109 -86 -200 -157 -91 -71 -181
-143 -201 -159 -20 -17 -80 -65 -134 -106 -54 -41 -154 -120 -223 -175 -68
-55 -139 -111 -157 -125 -100 -77 -147 -114 -205 -162 -36 -29 -81 -65 -100
-80 -19 -15 -66 -52 -105 -83 -38 -30 -114 -90 -168 -133 -54 -42 -116 -90
-136 -107 -21 -16 -56 -43 -77 -60 -21 -16 -73 -57 -114 -90 -41 -33 -110 -86
-152 -118 -118 -88 -148 -119 -148 -155 0 -34 30 -62 66 -62 27 0 63 26 314
225 21 17 60 47 86 67 27 21 101 78 164 128 191 150 299 234 334 260 27 20
134 105 206 163 8 7 35 28 60 47 25 19 47 37 50 40 3 4 47 39 98 78 51 39 141
110 200 157 245 194 393 312 442 350 29 22 97 76 152 120 55 44 121 96 148
115 26 19 78 60 115 90 65 54 100 81 198 158 26 20 67 53 91 72 24 19 67 53
96 75 29 22 73 57 99 77 25 21 60 49 76 62 17 13 51 41 77 62 26 22 78 64 117
94 76 61 89 86 66 130 -23 45 -74 41 -140 -11z"/>
</g>
</svg>
