<?xml version="1.0" encoding="UTF-8"?>
<svg version="1.1" xmlns="http://www.w3.org/2000/svg" width="500" height="500">
<path d="M0 0 C4.85446246 4.7331009 6.22767714 9.66513338 6.39428711 16.31542969 C6.43010391 17.62175354 6.46592072 18.92807739 6.50282288 20.27398682 C6.5323415 21.73993933 6.56132682 23.20590266 6.58984375 24.671875 C6.6267441 26.24477804 6.66394036 27.81767416 6.70140076 29.39056396 C7.23210322 53.052528 7.34937408 76.7243174 7.53222656 100.39086914 C7.58335916 106.90903839 7.63855548 113.42717327 7.69335938 119.9453125 C7.79943891 132.63017853 7.90132623 145.3150743 8 158 C10.90073181 158.67801034 10.90073181 158.67801034 14 159 C16.55880817 156.44119183 16.2520541 155.50635146 16.25828552 151.95394897 C16.26852753 150.35164932 16.26852753 150.35164932 16.27897644 148.71697998 C16.27642349 147.53984436 16.27387054 146.36270874 16.27124023 145.14990234 C16.27646698 143.9140036 16.28169373 142.67810486 16.28707886 141.40475464 C16.29734472 138.71241065 16.30403952 136.02032192 16.30496025 133.32798386 C16.30689947 129.06612736 16.32494691 124.80443382 16.34571838 120.54263306 C16.39493852 109.95135978 16.42574254 99.36004192 16.44702148 88.76867676 C16.46356705 80.54823577 16.4864637 72.32793368 16.53004223 64.10758555 C16.55176023 59.87644366 16.55988176 55.64556596 16.55764949 51.41437221 C16.55971727 48.15167978 16.58109669 44.88910065 16.59936523 41.62646484 C16.59478806 40.46147461 16.59021088 39.29648438 16.585495 38.09619141 C16.64809624 31.05525005 16.84901856 24.33447233 21.9453125 18.94140625 C27.87669956 15.189113 33.0274247 13.01844882 40.09765625 14.4140625 C45.16474052 16.03474841 49.54312974 18.94518462 53 23 C54.69968404 26.59119256 55.25248714 29.4376258 55.26501465 33.39576721 C55.27328781 34.46545746 55.28156097 35.53514771 55.29008484 36.63725281 C55.28910294 37.80053604 55.28812103 38.96381927 55.28710938 40.16235352 C55.29394241 41.39536194 55.30077545 42.62837036 55.30781555 43.89874268 C55.32140074 46.57467103 55.33144584 49.25033824 55.33552551 51.92627144 C55.34225156 56.15786791 55.36401933 60.38930571 55.38806152 64.62083435 C55.44113769 74.36524089 55.47456813 84.10969628 55.50782013 93.85418701 C55.53850882 102.7894478 55.57334138 111.72464031 55.62413073 120.65981239 C55.64747162 124.86609014 55.66121814 129.07225705 55.66762543 133.27859318 C55.6749567 136.50811472 55.69496816 139.73756352 55.71289062 142.96704102 C55.71190872 144.13234848 55.71092682 145.29765594 55.70991516 146.49827576 C55.71818832 147.56514618 55.72646149 148.6320166 55.73498535 149.73121643 C55.73938503 151.12075704 55.73938503 151.12075704 55.7438736 152.53836918 C56.01328409 155.12767339 56.68841106 156.77182075 58 159 C61.29075996 158.62095792 61.29075996 158.62095792 64 157 C64.10901256 154.59826509 64.15421873 152.22422572 64.15771484 149.8215332 C64.16279556 149.07024643 64.16787628 148.31895966 64.17311096 147.54490662 C64.18383884 145.90740958 64.19244947 144.26989767 64.19923019 142.63237953 C64.21099187 140.03879195 64.23043955 137.44537295 64.25234985 134.85185242 C64.31404314 127.4755924 64.36794723 120.09934682 64.40136719 112.72290039 C64.42234237 108.21528225 64.45767485 103.70796654 64.50212479 99.20052147 C64.51626965 97.4834163 64.52500381 95.76625756 64.52817917 94.04909706 C64.53310166 91.64089096 64.55629531 89.23348275 64.58349609 86.82543945 C64.57898689 85.7661171 64.57898689 85.7661171 64.5743866 84.68539429 C64.66489965 79.27478415 66.03167384 75.2801402 69.578125 71.171875 C74.85695153 66.68240571 79.50771954 64.64391558 86.5625 65.1875 C93.47613652 66.23040449 97.39814869 69.01195749 101.80078125 74.28125 C104.42738156 78.04575859 104.14584702 81.92109922 104.14044189 86.31005859 C104.14489858 87.43544745 104.14489858 87.43544745 104.1494453 88.58357143 C104.15813763 91.10520467 104.15964102 93.62679046 104.16113281 96.1484375 C104.1657608 97.95367026 104.17078543 99.75890205 104.17617798 101.56413269 C104.18931033 106.47569364 104.19574917 111.38724091 104.20018864 116.29881668 C104.20311947 119.36920607 104.20722441 122.43959173 104.21169281 125.50997925 C104.22537314 135.121373 104.23503582 144.73275822 104.2388947 154.34416103 C104.24336969 165.4289141 104.26088933 176.5135435 104.2898953 187.59825897 C104.31154615 196.17082215 104.32160088 204.74335064 104.32293582 213.31594086 C104.32398188 218.43314872 104.3298468 223.55024043 104.34775543 228.66741943 C104.36429381 233.48715062 104.36636371 238.30667907 104.35761642 243.1264286 C104.35684899 244.88917905 104.36114975 246.65194064 104.37107468 248.41466331 C104.42019259 257.68720298 104.11776951 266.14995177 101 275 C100.74111622 275.85022232 100.48223244 276.70044464 100.21550369 277.57643127 C96.67546428 288.94887277 87.13312561 298.27027452 77 304 C76.20980469 304.52078125 75.41960937 305.0415625 74.60546875 305.578125 C68.61764145 309.46314051 62.92634367 311.4353714 56 313 C54.21711327 313.50867111 54.21711327 313.50867111 52.39820862 314.02761841 C47.82204377 315.16876977 43.48903579 315.25766981 38.79272461 315.19873047 C37.90856873 315.19569412 37.02441284 315.19265778 36.11346436 315.18952942 C33.20957261 315.17632025 30.30610235 315.14765117 27.40234375 315.1171875 C25.36463183 315.10114185 23.32691709 315.08545161 21.28919983 315.07009888 C17.0215531 315.03517539 12.7540854 314.99184761 8.48657227 314.94335938 C3.05591524 314.88289721 -2.37452752 314.84946185 -7.80544376 314.82330132 C-12.01560616 314.79887438 -16.22545813 314.7566185 -20.4354229 314.70956802 C-22.43534712 314.68989262 -24.43534184 314.6762949 -26.43535042 314.66924667 C-48.1276397 314.57699685 -65.2891583 310.5099255 -81.71875 295.46875 C-87.13978444 289.60215108 -91.52672232 282.88915429 -95.9375 276.25 C-96.46182617 275.46286621 -96.98615234 274.67573242 -97.52636719 273.86474609 C-100.99663374 268.61642398 -104.24269507 263.28213167 -107.34765625 257.80859375 C-109.75664714 253.71387874 -112.42201186 249.80533096 -115.10546875 245.88671875 C-116.84781131 243.23189163 -118.43096401 240.52278158 -119.98852539 237.7565918 C-121.59927604 234.95925872 -123.36487973 232.26762949 -125.125 229.5625 C-128.99951668 223.58434723 -132.7941444 217.55989147 -136.54931641 211.50610352 C-138.36297253 208.58898474 -140.19888307 205.70185988 -142.10546875 202.84375 C-143.26367746 201.10524291 -144.39079631 199.34484149 -145.4609375 197.55078125 C-146.65470469 195.57227878 -147.92589585 193.64039504 -149.2265625 191.73046875 C-149.814375 190.86131836 -149.814375 190.86131836 -150.4140625 189.97460938 C-151.21840377 188.78755734 -152.03349775 187.60771759 -152.859375 186.43554688 C-155.86625598 181.93020368 -156.77214335 178.4286847 -157 173 C-155.04588178 168.22326656 -151.72556795 165.30961581 -147.09765625 163.0859375 C-137.92917939 159.53791933 -128.63020317 159.96643232 -119.59375 163.6796875 C-112.3623274 167.36074298 -107.19185002 172.67939307 -101.984375 178.79296875 C-99.4557744 181.60529028 -96.68000932 183.99715259 -93.76171875 186.39453125 C-92 188 -92 188 -90.46875 190.18359375 C-89.9840625 190.78300781 -89.499375 191.38242187 -89 192 C-85.87413125 192.33397787 -85.87413125 192.33397787 -83 192 C-81.65614746 189.31229491 -81.87222981 187.24330197 -81.86869812 184.2326355 C-81.86468994 183.0045668 -81.86068176 181.77649811 -81.85655212 180.51121521 C-81.85702726 179.14273069 -81.85756338 177.77424619 -81.8581543 176.40576172 C-81.85512343 174.97018832 -81.85160217 173.53461589 -81.84762573 172.0990448 C-81.83972889 169.00244921 -81.83458878 165.90586519 -81.83133507 162.80926132 C-81.82542805 157.90894797 -81.80888917 153.00870738 -81.78999329 148.10842896 C-81.78365552 146.43085294 -81.7773299 144.75327687 -81.77101612 143.07570076 C-81.76785031 142.23542029 -81.7646845 141.39513981 -81.76142275 140.5293963 C-81.71935467 129.11921997 -81.68638802 117.7090768 -81.67407227 106.29882812 C-81.66568305 98.60553292 -81.64315781 90.91241714 -81.6047166 83.2192117 C-81.58497947 79.1489056 -81.57254338 75.07886758 -81.57755089 71.00851059 C-81.58220897 67.17523291 -81.56832932 63.34246238 -81.54053879 59.50928688 C-81.53364555 58.10651247 -81.53348032 56.70368542 -81.54073906 55.30091286 C-81.58056921 46.73470121 -81.48784176 39.63546814 -75.21875 33.16015625 C-74.36796875 32.61681641 -74.36796875 32.61681641 -73.5 32.0625 C-72.64921875 31.49208984 -72.64921875 31.49208984 -71.78125 30.91015625 C-66.64140276 28.28387465 -60.28875393 27.9722644 -54.8125 29.68359375 C-50.03049462 31.86628939 -46.91457175 34.54241967 -44 39 C-41.97307841 45.39463468 -41.7063136 51.2981416 -41.71289062 57.97412109 C-41.70605759 59.04496948 -41.69922455 60.11581787 -41.69218445 61.21911621 C-41.67864958 63.53147679 -41.6695623 65.84386685 -41.66447449 68.15626144 C-41.6561621 71.81209429 -41.63563897 75.46768016 -41.61193848 79.1234436 C-41.55563022 88.19462877 -41.52022684 97.26587348 -41.48431396 106.3371582 C-41.45313133 114.01875667 -41.41401247 121.70023289 -41.36405945 129.38173294 C-41.34393484 132.99029387 -41.33566296 136.5987615 -41.32775879 140.20736694 C-41.31479473 142.40566353 -41.30127565 144.60395693 -41.28710938 146.80224609 C-41.28809128 147.81106842 -41.28907318 148.81989075 -41.29008484 149.85928345 C-41.28181168 150.77602844 -41.27353851 151.69277344 -41.26501465 152.63729858 C-41.26208153 153.43624228 -41.25914841 154.23518597 -41.2561264 155.05834007 C-41.16915967 157.23654685 -41.16915967 157.23654685 -39 159 C-36.39719432 158.67958603 -36.39719432 158.67958603 -34 158 C-33.99761165 157.26008316 -33.99522329 156.52016632 -33.99276257 155.75782776 C-33.93357583 137.73763789 -33.85800222 119.71758456 -33.76428509 101.69754028 C-33.7193572 92.98310558 -33.67993561 84.26871147 -33.65356445 75.55419922 C-33.63056 67.95688464 -33.59713468 60.35969885 -33.55129844 52.76248646 C-33.52739915 48.74138809 -33.50864883 44.720417 -33.50238609 40.69924927 C-33.49632026 36.91037434 -33.47626676 33.12182496 -33.44572449 29.33307076 C-33.43696817 27.94642971 -33.43321668 26.55974609 -33.43499184 25.17307854 C-33.44902833 9.14172021 -33.44902833 9.14172021 -28.1328125 2.7578125 C-18.69159844 -4.92006197 -10.98350603 -5.9038741 0 0 Z " fill="#72737A" transform="translate(252,89)"/>
<path d="M0 0 C-2.97 3.3 -5.94 6.6 -9 10 C-11.56687367 6.1496895 -10.83288724 4.41430237 -10 0 C-2.25 -1.125 -2.25 -1.125 0 0 Z " fill="#8B8A8F" transform="translate(347,377)"/>
<path d="M0 0 C0.33 1.32 0.66 2.64 1 4 C-4.625 8 -4.625 8 -8 8 C-6.65580512 3.85539913 -4.87800266 0 0 0 Z " fill="#909195" transform="translate(279,106)"/>
<path d="M0 0 C2.93200474 2.85276137 5.64315404 5.65079784 8 9 C6.35 9.33 4.7 9.66 3 10 C3 9.34 3 8.68 3 8 C2.34 8 1.68 8 1 8 C0.67 5.36 0.34 2.72 0 0 Z " fill="#919194" transform="translate(144,262)"/>
<path d="M0 0 C0.33 0.66 0.66 1.32 1 2 C1.99 2 2.98 2 4 2 C4.33 1.34 4.66 0.68 5 0 C5.66 1.65 6.32 3.3 7 5 C6.01 5 5.02 5 4 5 C4.66 5.33 5.32 5.66 6 6 C6 7.65 6 9.3 6 11 C0 3.6 0 3.6 0 0 Z " fill="#9C9CA0" transform="translate(96,267)"/>
<path d="M0 0 C1.98 1.65 3.96 3.3 6 5 C5.67 5.66 5.34 6.32 5 7 C3.0625 6.3125 3.0625 6.3125 1 5 C0.25 2.375 0.25 2.375 0 0 Z " fill="#97989B" transform="translate(348,158)"/>
<path d="M0 0 C1.32 0.99 2.64 1.98 4 3 C3.34 4.32 2.68 5.64 2 7 C0.68 6.34 -0.64 5.68 -2 5 C-1.34 4.01 -0.68 3.02 0 2 C0 1.34 0 0.68 0 0 Z " fill="#8E8D93" transform="translate(251,89)"/>
<path d="M0 0 C0.66 0 1.32 0 2 0 C2.66 0.66 3.32 1.32 4 2 C5.32392972 3.01241685 6.65599167 4.01439389 8 5 C7.01 5 6.02 5 5 5 C4.67 5.66 4.34 6.32 4 7 C2.02 3.535 2.02 3.535 0 0 Z " fill="#A6A6AB" transform="translate(135,331)"/>
<path d="" fill="#FFFFFF" transform="translate(0,0)"/>
<path d="" fill="#FFFFFF" transform="translate(0,0)"/>
<path d="" fill="#FFFFFF" transform="translate(0,0)"/>
<path d="" fill="#FFFFFF" transform="translate(0,0)"/>
<path d="" fill="#FFFFFF" transform="translate(0,0)"/>
<path d="" fill="#FFFFFF" transform="translate(0,0)"/>
<path d="" fill="#FFFFFF" transform="translate(0,0)"/>
<path d="" fill="#FFFFFF" transform="translate(0,0)"/>
<path d="" fill="#FFFFFF" transform="translate(0,0)"/>
<path d="" fill="#FFFFFF" transform="translate(0,0)"/>
<path d="" fill="#FFFFFF" transform="translate(0,0)"/>
<path d="" fill="#FFFFFF" transform="translate(0,0)"/>
<path d="" fill="#FFFFFF" transform="translate(0,0)"/>
<path d="" fill="#FFFFFF" transform="translate(0,0)"/>
<path d="" fill="#FFFFFF" transform="translate(0,0)"/>
<path d="" fill="#FFFFFF" transform="translate(0,0)"/>
<path d="" fill="#FFFFFF" transform="translate(0,0)"/>
<path d="" fill="#FFFFFF" transform="translate(0,0)"/>
<path d="" fill="#FFFFFF" transform="translate(0,0)"/>
<path d="" fill="#FFFFFF" transform="translate(0,0)"/>
<path d="" fill="#FFFFFF" transform="translate(0,0)"/>
<path d="" fill="#FFFFFF" transform="translate(0,0)"/>
<path d="" fill="#FFFFFF" transform="translate(0,0)"/>
<path d="" fill="#FFFFFF" transform="translate(0,0)"/>
<path d="" fill="#FFFFFF" transform="translate(0,0)"/>
<path d="" fill="#FFFFFF" transform="translate(0,0)"/>
<path d="" fill="#FFFFFF" transform="translate(0,0)"/>
<path d="" fill="#FFFFFF" transform="translate(0,0)"/>
<path d="" fill="#FFFFFF" transform="translate(0,0)"/>
<path d="" fill="#FFFFFF" transform="translate(0,0)"/>
<path d="" fill="#FFFFFF" transform="translate(0,0)"/>
<path d="" fill="#FFFFFF" transform="translate(0,0)"/>
<path d="" fill="#FFFFFF" transform="translate(0,0)"/>
<path d="" fill="#FFFFFF" transform="translate(0,0)"/>
<path d="" fill="#FFFFFF" transform="translate(0,0)"/>
<path d="" fill="#FFFFFF" transform="translate(0,0)"/>
<path d="" fill="#FFFFFF" transform="translate(0,0)"/>
<path d="" fill="#FFFFFF" transform="translate(0,0)"/>
<path d="" fill="#FFFFFF" transform="translate(0,0)"/>
<path d="" fill="#FFFFFF" transform="translate(0,0)"/>
<path d="" fill="#FFFFFF" transform="translate(0,0)"/>
<path d="" fill="#FFFFFF" transform="translate(0,0)"/>
<path d="" fill="#FFFFFF" transform="translate(0,0)"/>
<path d="" fill="#FFFFFF" transform="translate(0,0)"/>
<path d="" fill="#FFFFFF" transform="translate(0,0)"/>
<path d="" fill="#FFFFFF" transform="translate(0,0)"/>
<path d="" fill="#FFFFFF" transform="translate(0,0)"/>
<path d="" fill="#FFFFFF" transform="translate(0,0)"/>
<path d="" fill="#FFFFFF" transform="translate(0,0)"/>
<path d="" fill="#FFFFFF" transform="translate(0,0)"/>
<path d="" fill="#FFFFFF" transform="translate(0,0)"/>
<path d="" fill="#FFFFFF" transform="translate(0,0)"/>
<path d="" fill="#FFFFFF" transform="translate(0,0)"/>
<path d="" fill="#FFFFFF" transform="translate(0,0)"/>
<path d="" fill="#FFFFFF" transform="translate(0,0)"/>
<path d="" fill="#FFFFFF" transform="translate(0,0)"/>
<path d="" fill="#FFFFFF" transform="translate(0,0)"/>
<path d="" fill="#FFFFFF" transform="translate(0,0)"/>
<path d="" fill="#FFFFFF" transform="translate(0,0)"/>
<path d="" fill="#FFFFFF" transform="translate(0,0)"/>
<path d="" fill="#FFFFFF" transform="translate(0,0)"/>
<path d="" fill="#FFFFFF" transform="translate(0,0)"/>
<path d="" fill="#FFFFFF" transform="translate(0,0)"/>
<path d="" fill="#FFFFFF" transform="translate(0,0)"/>
<path d="" fill="#FFFFFF" transform="translate(0,0)"/>
<path d="" fill="#FFFFFF" transform="translate(0,0)"/>
<path d="" fill="#FFFFFF" transform="translate(0,0)"/>
<path d="" fill="#FFFFFF" transform="translate(0,0)"/>
<path d="" fill="#FFFFFF" transform="translate(0,0)"/>
<path d="" fill="#FFFFFF" transform="translate(0,0)"/>
<path d="" fill="#FFFFFF" transform="translate(0,0)"/>
<path d="" fill="#FFFFFF" transform="translate(0,0)"/>
<path d="" fill="#FFFFFF" transform="translate(0,0)"/>
<path d="" fill="#FFFFFF" transform="translate(0,0)"/>
<path d="" fill="#FFFFFF" transform="translate(0,0)"/>
</svg>
