<?xml version="1.0" encoding="UTF-8"?>
<svg version="1.1" xmlns="http://www.w3.org/2000/svg" width="491" height="484">
<path d="M0 0 C2.98932164 1.34155631 5.05967051 2.81752877 7.35644531 5.14526367 C7.99100647 5.78320358 8.62556763 6.42114349 9.27935791 7.07841492 C9.95545105 7.76796768 10.63154419 8.45752045 11.328125 9.16796875 C12.38987946 10.23752556 12.38987946 10.23752556 13.4730835 11.32868958 C15.73685772 13.61026194 17.99385671 15.89838342 20.25 18.1875 C22.49266506 20.45793875 24.73682159 22.72684929 26.98406982 24.99275208 C28.38052401 26.40129031 29.77429967 27.81249126 31.16485596 29.22685242 C35.59969257 33.70644318 40.21707284 37.8963526 45 42 C46.70808386 43.51882912 48.39990144 45.05651079 50.0625 46.625 C50.83722656 47.33914062 51.61195313 48.05328125 52.41015625 48.7890625 C54 51 54 51 53.91916275 53.33356762 C52.67607138 56.93969621 50.77380195 58.39698062 47.88323975 60.87385559 C46.77553366 61.84727103 45.67055558 62.82379714 44.5679245 63.80295753 C43.69055775 64.57991962 43.69055775 64.57991962 42.79546642 65.37257791 C39.72250277 68.15793155 36.79429252 71.08499601 33.86236572 74.01737976 C33.23298395 74.64559399 32.60360217 75.27380822 31.95514822 75.92105925 C29.9241122 77.95144733 27.896125 79.98485144 25.86816406 82.01831055 C24.38879544 83.49796189 22.90920529 84.97739179 21.42941284 86.45661926 C17.44867039 90.43707707 13.4709992 94.42059078 9.49390888 98.40469718 C5.32373554 102.58115988 1.15069349 106.7547543 -3.02203369 110.92866516 C-10.90723983 118.81696825 -18.78989536 126.70781494 -26.67161775 134.59959871 C-35.65159667 143.59078979 -44.63444573 152.57911109 -53.61752653 161.56720293 C-72.08152657 180.04163027 -90.54195341 198.51962462 -109 217 C-113.29741737 215.40467106 -115.79966713 213.59260597 -119.08154297 210.35424805 C-119.56180435 209.8840625 -120.04206573 209.41387695 -120.53688049 208.92944336 C-122.11329898 207.38139671 -123.67827834 205.8223953 -125.2421875 204.26171875 C-126.33580894 203.17774114 -127.42965384 202.09398893 -128.52371216 201.01045227 C-130.81023506 198.7418603 -133.09050362 196.46718447 -135.3671875 194.1887207 C-138.28773425 191.26786819 -141.22842297 188.36824433 -144.17477226 185.47345257 C-146.43777161 183.2437658 -148.68704726 181.00062025 -150.93265152 178.75342751 C-152.01154441 177.678078 -153.09531293 176.60759751 -154.18395615 175.54211998 C-155.70218811 174.05321709 -157.20029795 172.54658088 -158.69482422 171.03393555 C-159.55244354 170.18059128 -160.41006287 169.32724701 -161.29367065 168.44804382 C-163 166 -163 166 -162.88064575 163.32356262 C-161.75434535 160.35184611 -160.23757231 158.81066048 -157.9375 156.625 C-157.20402344 155.91601562 -156.47054687 155.20703125 -155.71484375 154.4765625 C-153.63661455 152.58073902 -151.53517907 150.74126729 -149.40136719 148.91015625 C-144.68791511 144.78929353 -140.27452882 140.40078406 -135.86328125 135.9609375 C-135.02081345 135.11705475 -134.17834564 134.273172 -133.31034851 133.40371704 C-130.64202097 130.72983728 -127.97720268 128.05249171 -125.3125 125.375 C-123.51260279 123.57008012 -121.71247468 121.76539046 -119.91210938 119.9609375 C-115.905177 115.9441234 -111.89989412 111.92568065 -107.89859009 107.90325928 C-106.29595249 106.29668032 -104.68487292 104.69930746 -103.07104492 103.10400391 C-100.94046098 101.02474145 -100.94046098 101.02474145 -99.125 98.5625 C-97.33993347 96.40991977 -95.69449777 94.83072277 -93.5625 93.0625 C-91.24712519 91.1395616 -89.51010737 89.40961657 -87.5625 87.0625 C-84.88826474 83.86646274 -82.00667105 81.34709328 -78.84375 78.65625 C-76.60273296 76.643133 -74.87210899 74.35523389 -73 72 C-71.28157483 70.44345546 -69.51358895 68.95913628 -67.734375 67.47265625 C-64.53825929 64.75883728 -61.68094819 61.88523265 -59.125 58.5625 C-56.91098741 55.89266129 -54.55604562 53.81143401 -51.87890625 51.625 C-50.0267254 50.02311386 -48.29777598 48.33432378 -46.57739258 46.59277344 C-44.58662195 44.58259118 -42.57596509 42.59296079 -40.56640625 40.6015625 C-38.89837255 38.94277364 -37.2304056 37.28391766 -35.5625 35.625 C-34.31243164 34.3875 -34.31243164 34.3875 -33.03710938 33.125 C-28.92016033 29.02432348 -24.96598139 24.888598 -21.24047852 20.4296875 C-19.69927302 18.65340342 -18.02091758 17.15671724 -16.1875 15.6875 C-13.68034535 13.68613002 -13.68034535 13.68613002 -12 11 C-11.34 11 -10.68 11 -10 11 C-9.67 10.01 -9.34 9.02 -9 8 C-7.51964312 6.71273315 -6.03511402 5.42848014 -4.5 4.20703125 C-2.88344506 2.9062097 -1.42657911 1.5058335 0 0 Z " fill="#717178" transform="translate(293,136)"/>
<path d="M0 0 C10.06151069 8.21724193 22.73531425 18.83721718 25.00390625 32.23828125 C25.66268737 40.80243585 24.55561672 48.38185709 18.97119141 55.08496094 C15.81863328 58.70403118 12.52946728 62.18098792 9.1875 65.625 C8.68347656 66.25792969 8.17945313 66.89085937 7.66015625 67.54296875 C6.1875 68.625 6.1875 68.625 3.8293457 68.39990234 C0.82974144 67.52006278 -0.38788775 66.52809315 -2.5546875 64.30859375 C-3.56595703 63.28475586 -3.56595703 63.28475586 -4.59765625 62.24023438 C-5.28730469 61.52158203 -5.97695313 60.80292969 -6.6875 60.0625 C-7.36941406 59.37091797 -8.05132812 58.67933594 -8.75390625 57.96679688 C-12.10757901 54.53966271 -15.34607428 51.04623152 -18.4765625 47.4140625 C-21.23864209 44.22189995 -24.1449066 41.36145107 -27.3125 38.5625 C-32.32133359 34.03284345 -37.26588285 29.44007947 -42.125 24.75 C-42.80175781 24.11956787 -43.47851562 23.48913574 -44.17578125 22.83959961 C-48.73635608 18.38413177 -48.73635608 18.38413177 -49.0703125 15.0546875 C-47.34399407 11.71999787 -45.04048536 9.21681926 -42.375 6.625 C-41.8380249 6.09608154 -41.3010498 5.56716309 -40.74780273 5.0222168 C-29.44300597 -5.72860321 -13.51335711 -9.46505181 0 0 Z " fill="#75757C" transform="translate(358.8125,104.375)"/>
<path d="M0 0 C4.27238166 1.64666059 7.09544742 4.86052503 10.2265625 8.06640625 C11.10989761 8.95754372 11.10989761 8.95754372 12.01107788 9.86668396 C13.88720808 11.76059274 15.75650105 13.66106431 17.625 15.5625 C19.50150464 17.46661442 21.37944576 19.36925439 23.26034546 21.26902771 C24.42947724 22.45042549 25.59592558 23.63448601 26.75942993 24.82142639 C29.5974205 27.77936873 29.5974205 27.77936873 33 30 C33 30.66 33 31.32 33 32 C33.556875 32.20625 34.11375 32.4125 34.6875 32.625 C38.01603962 34.60413167 39.74304069 36.84025696 42 40 C41.67 40.99 41.34 41.98 41 43 C38.27479376 44.01023715 35.66356182 44.81819051 32.86328125 45.55859375 C31.61674019 45.90423119 31.61674019 45.90423119 30.34501648 46.2568512 C27.6706058 46.99559078 24.99183166 47.71683558 22.3125 48.4375 C20.55632012 48.91875383 18.80045643 49.40116307 17.04492188 49.88476562 C13.62510405 50.8259745 10.20317787 51.7588993 6.77978516 52.68701172 C1.40848671 54.15030019 -3.92890228 55.72016838 -9.26098633 57.32055664 C-12 58 -12 58 -16 58 C-15.37385109 51.25234244 -13.75955091 45.0337801 -11.875 38.53515625 C-11.56804199 37.4612413 -11.26108398 36.38732635 -10.94482422 35.28086853 C-10.29873091 33.02521826 -9.64975378 30.77039221 -8.99804688 28.51635742 C-7.99677034 25.05132338 -7.00551811 21.58353561 -6.015625 18.11523438 C-5.38600202 15.9217069 -4.75581383 13.72834156 -4.125 11.53515625 C-3.82706543 10.49359879 -3.52913086 9.45204132 -3.22216797 8.37892151 C-2.94518066 7.42380173 -2.66819336 6.46868195 -2.3828125 5.48461914 C-2.01760498 4.21842491 -2.01760498 4.21842491 -1.64501953 2.926651 C-1 1 -1 1 0 0 Z " fill="#74747B" transform="translate(119,322)"/>
<path d="M0 0 C0.66 0 1.32 0 2 0 C2.33 0.99 2.66 1.98 3 3 C-1.95 7.95 -6.9 12.9 -12 18 C-13 14 -13 14 -12.25 11.9375 C-11.00556581 10.00862701 -9.69452571 8.54047791 -8 7 C-8.99 6.67 -9.98 6.34 -11 6 C-10.67 5.34 -10.34 4.68 -10 4 C-9.01 4 -8.02 4 -7 4 C-6.67 3.34 -6.34 2.68 -6 2 C-4.02 2 -2.04 2 0 2 C0 1.34 0 0.68 0 0 Z " fill="#78777E" transform="translate(267,264)"/>
<path d="M0 0 C0.99 0.66 1.98 1.32 3 2 C-2.94 7.94 -8.88 13.88 -15 20 C-15.66 18.68 -16.32 17.36 -17 16 C-16.195625 15.21625 -15.39125 14.4325 -14.5625 13.625 C-12.01309583 11.28017144 -12.01309583 11.28017144 -11 9 C-10.34 9 -9.68 9 -9 9 C-8.67 8.34 -8.34 7.68 -8 7 C-7.01 6.67 -6.02 6.34 -5 6 C-4.67 5.34 -4.34 4.68 -4 4 C-3.34 4 -2.68 4 -2 4 C-1.34 2.68 -0.68 1.36 0 0 Z " fill="#828286" transform="translate(327,205)"/>
<path d="M0 0 C0.66 0.99 1.32 1.98 2 3 C1.01 3 0.02 3 -1 3 C-1.04125 3.7425 -1.0825 4.485 -1.125 5.25 C-2.36317343 9.14140221 -4.55198747 9.94445407 -8 12 C-9.68083079 13.31543279 -11.3524116 14.64316249 -13 16 C-13.66 15.67 -14.32 15.34 -15 15 C-10.05 10.05 -5.1 5.1 0 0 Z " fill="#89898E" transform="translate(185,244)"/>
<path d="M0 0 C3 1 3 1 5 4 C6.97747122 4.36297936 6.97747122 4.36297936 9.125 4.1875 C10.40375 4.125625 11.6825 4.06375 13 4 C8.52281208 6.98479194 4.36175907 8 -1 8 C-0.67 5.36 -0.34 2.72 0 0 Z " fill="#9A999D" transform="translate(104,372)"/>
<path d="M0 0 C2.03833424 1.2739589 4.03852126 2.61061923 6 4 C6 4.66 6 5.32 6 6 C6.556875 6.20625 7.11375 6.4125 7.6875 6.625 C10.92501302 8.55000774 12.68231141 11.03850902 15 14 C14.67 14.66 14.34 15.32 14 16 C11.69 13.36 9.38 10.72 7 8 C6.01 8.33 5.02 8.66 4 9 C0.06153846 5.67692308 0.06153846 5.67692308 -0.25 2.25 C-0.1675 1.5075 -0.085 0.765 0 0 Z " fill="#ABABAE" transform="translate(146,348)"/>
<path d="M0 0 C2 1 2 1 3.375 3.5625 C4.179375 4.7690625 4.179375 4.7690625 5 6 C8.8303084 6.40694193 8.8303084 6.40694193 10.703125 4.6875 C11.21359375 4.130625 11.7240625 3.57375 12.25 3 C12.77078125 2.443125 13.2915625 1.88625 13.828125 1.3125 C14.21484375 0.879375 14.6015625 0.44625 15 0 C15.66 0.33 16.32 0.66 17 1 C15.79040384 2.37167605 14.55648812 3.72193609 13.3125 5.0625 C12.28576172 6.19365234 12.28576172 6.19365234 11.23828125 7.34765625 C9 9 9 9 6.4375 8.96875 C3.65456575 7.86271203 2.51874912 6.77979538 0.6875 4.4375 C0.17574219 3.79683594 -0.33601563 3.15617188 -0.86328125 2.49609375 C-1.23839844 2.00238281 -1.61351562 1.50867188 -2 1 C-1.34 0.67 -0.68 0.34 0 0 Z " fill="#C8C8CA" transform="translate(356,164)"/>
<path d="M0 0 C0.66 0 1.32 0 2 0 C2.33 0.99 2.66 1.98 3 3 C0.69 5.31 -1.62 7.62 -4 10 C-4.66 9.01 -5.32 8.02 -6 7 C-4.91926148 4.83852297 -3.80636736 3.58960328 -2 2 C-1.34 2 -0.68 2 0 2 C0 1.34 0 0.68 0 0 Z " fill="#828187" transform="translate(219,312)"/>
<path d="M0 0 C0.66 0.33 1.32 0.66 2 1 C1.1875 3.9375 1.1875 3.9375 0 7 C-0.99 7.33 -1.98 7.66 -3 8 C-3.66 8.66 -4.32 9.32 -5 10 C-5.66 9.67 -6.32 9.34 -7 9 C-7.33 9.99 -7.66 10.98 -8 12 C-8.66 11.67 -9.32 11.34 -10 11 C-9.278125 10.29875 -8.55625 9.5975 -7.8125 8.875 C-5.00176187 6.07229255 -2.50483774 3.07737208 0 0 Z " fill="#949398" transform="translate(196,232)"/>
<path d="M0 0 C1.1055189 0.93590504 2.20935453 1.87379858 3.3125 2.8125 C3.92738281 3.33457031 4.54226563 3.85664062 5.17578125 4.39453125 C8.51952278 7.3373102 8.51952278 7.3373102 10 9 C10 9.66 10 10.32 10 11 C9.01 11.33 8.02 11.66 7 12 C6.34 11.67 5.68 11.34 5 11 C5.33 9.68 5.66 8.36 6 7 C5.38125 6.95875 4.7625 6.9175 4.125 6.875 C3.42375 6.58625 2.7225 6.2975 2 6 C0.75 2.9375 0.75 2.9375 0 0 Z " fill="#9E9FA4" transform="translate(366,112)"/>
<path d="M0 0 C5.36311579 0.33519474 9.12824761 3.54134253 13 7 C14.0349209 8.3064136 15.04562236 9.63363947 16 11 C13.48435529 9.88193568 11.64201233 8.70466017 9.5 6.9375 C7.07896904 5.06120101 5.86597187 4.66872677 3 4 C1.25 2.5 1.25 2.5 0 1 C0 0.67 0 0.34 0 0 Z " fill="#AFB0B4" transform="translate(350,101)"/>
<path d="M0 0 C1.32 0 2.64 0 4 0 C4.66 0.66 5.32 1.32 6 2 C3.69 4.31 1.38 6.62 -1 9 C-1.66 8.01 -2.32 7.02 -3 6 C-2.505 5.38125 -2.01 4.7625 -1.5 4.125 C0.19222773 2.16119096 0.19222773 2.16119096 0 0 Z " fill="#868589" transform="translate(192,337)"/>
<path d="M0 0 C3.21043882 1.38188453 5.04936365 2.92421903 7.25 5.625 C7.77078125 6.25664062 8.2915625 6.88828125 8.828125 7.5390625 C9.40820312 8.26222656 9.40820312 8.26222656 10 9 C8.68 9.33 7.36 9.66 6 10 C5.67 8.35 5.34 6.7 5 5 C4.34 5 3.68 5 3 5 C2.67 5.66 2.34 6.32 2 7 C2 6.01 2 5.02 2 4 C1.01 3.67 0.02 3.34 -1 3 C-0.67 2.01 -0.34 1.02 0 0 Z " fill="#97979B" transform="translate(119,322)"/>
<path d="M0 0 C0.66 0 1.32 0 2 0 C2.33 0.99 2.66 1.98 3 3 C1.8572081 4.16964602 0.71068285 5.33564556 -0.4375 6.5 C-1.07558594 7.1496875 -1.71367187 7.799375 -2.37109375 8.46875 C-4 10 -4 10 -5 10 C-5.3674833 5.46770601 -5.3674833 5.46770601 -3.625 3.25 C-2 2 -2 2 0 1 C0 0.67 0 0.34 0 0 Z " fill="#85848A" transform="translate(251,280)"/>
<path d="M0 0 C0.83414558 2.38480081 1.11903995 3.63319086 0.328125 6.0703125 C-0.02765625 6.74835938 -0.3834375 7.42640625 -0.75 8.125 C-1.09546875 8.80820313 -1.4409375 9.49140625 -1.796875 10.1953125 C-3 12 -3 12 -6 14 C-6 12.68 -6 11.36 -6 10 C-5.34 10 -4.68 10 -4 10 C-3.7834375 8.824375 -3.7834375 8.824375 -3.5625 7.625 C-3 5 -3 5 -2 3 C-1.34 3 -0.68 3 0 3 C0 2.01 0 1.02 0 0 Z " fill="#A5A5A7" transform="translate(382,146)"/>
<path d="M0 0 C0.99 0.33 1.98 0.66 3 1 C1.68 1.33 0.36 1.66 -1 2 C-1.33 3.98 -1.66 5.96 -2 8 C-2.94875 8.309375 -3.8975 8.61875 -4.875 8.9375 C-7.86080408 9.87394742 -7.86080408 9.87394742 -10 11 C-8.855396 7.56618799 -7.27405536 6.41427241 -4.5 4.20703125 C-2.88344506 2.9062097 -1.42657911 1.5058335 0 0 Z " fill="#A8A7AB" transform="translate(293,136)"/>
<path d="M0 0 C0.66 0 1.32 0 2 0 C2.33 0.99 2.66 1.98 3 3 C0.69 4.98 -1.62 6.96 -4 9 C-4.33 7.68 -4.66 6.36 -5 5 C-3 2 -3 2 0 1 C0 0.67 0 0.34 0 0 Z " fill="#848488" transform="translate(243,288)"/>
<path d="M0 0 C0.99 0.66 1.98 1.32 3 2 C0.36 4.64 -2.28 7.28 -5 10 C-5.66 8.68 -6.32 7.36 -7 6 C-6.34 6 -5.68 6 -5 6 C-4.67 5.34 -4.34 4.68 -4 4 C-3.34 4 -2.68 4 -2 4 C-1.34 2.68 -0.68 1.36 0 0 Z " fill="#8A898F" transform="translate(327,205)"/>
<path d="M0 0 C1.32 0.66 2.64 1.32 4 2 C1.69 4.31 -0.62 6.62 -3 9 C-3.66 7.68 -4.32 6.36 -5 5 C-4.01 5 -3.02 5 -2 5 C-1.34 3.35 -0.68 1.7 0 0 Z " fill="#88878C" transform="translate(299,232)"/>
<path d="M0 0 C0.66 0.33 1.32 0.66 2 1 C2 4 2 4 0.1875 6.0625 C-2 8 -2 8 -5 10 C-5.66 9.34 -6.32 8.68 -7 8 C-6.21625 7.236875 -5.4325 6.47375 -4.625 5.6875 C-1.92742283 3.09108195 -1.92742283 3.09108195 0 0 Z " fill="#939297" transform="translate(217,211)"/>
<path d="M0 0 C0.66 0.66 1.32 1.32 2 2 C0.8572081 3.16964602 -0.28931715 4.33564556 -1.4375 5.5 C-2.07558594 6.1496875 -2.71367187 6.799375 -3.37109375 7.46875 C-5 9 -5 9 -6 9 C-6.36585366 4.48780488 -6.36585366 4.48780488 -4.6875 2.25 C-3 1 -3 1 0 0 Z " fill="#89888D" transform="translate(228,305)"/>
<path d="M0 0 C0.66 0 1.32 0 2 0 C2.33 0.99 2.66 1.98 3 3 C0.03 5.475 0.03 5.475 -3 8 C-3 7.34 -3 6.68 -3 6 C-3.66 6 -4.32 6 -5 6 C-4.1875 4.0625 -4.1875 4.0625 -3 2 C-2.01 1.67 -1.02 1.34 0 1 C0 0.67 0 0.34 0 0 Z " fill="#838287" transform="translate(235,296)"/>
<path d="M0 0 C0.99 0.33 1.98 0.66 3 1 C1.63016497 4.16115776 1.0109362 4.9927092 -2 7 C-2 6.34 -2 5.68 -2 5 C-2.66 5 -3.32 5 -4 5 C-3 2 -3 2 0 0 Z " fill="#807F85" transform="translate(340,191)"/>
<path d="M0 0 C4 0 4 0 5.75 1.375 C7 3 7 3 7 5 C7.66 5.33 8.32 5.66 9 6 C9.33 6.99 9.66 7.98 10 9 C6.78956118 7.61811547 4.95063635 6.07578097 2.75 3.375 C2.22921875 2.74335938 1.7084375 2.11171875 1.171875 1.4609375 C0.78515625 0.97882813 0.3984375 0.49671875 0 0 Z " fill="#A5A4A7" transform="translate(172,343)"/>
<path d="M0 0 C0.66 0.66 1.32 1.32 2 2 C-0.31 4.31 -2.62 6.62 -5 9 C-5.33 7.68 -5.66 6.36 -6 5 C-5.34 5 -4.68 5 -4 5 C-3.896875 4.360625 -3.79375 3.72125 -3.6875 3.0625 C-3.460625 2.381875 -3.23375 1.70125 -3 1 C-2.01 0.67 -1.02 0.34 0 0 Z " fill="#8A898E" transform="translate(284,249)"/>
<path d="M0 0 C0.66 0.66 1.32 1.32 2 2 C-0.31 4.31 -2.62 6.62 -5 9 C-6 5 -6 5 -5 3 C-2.4375 2.375 -2.4375 2.375 0 2 C0 1.34 0 0.68 0 0 Z " fill="#8B898E" transform="translate(276,257)"/>
<path d="M0 0 C0.66 0.33 1.32 0.66 2 1 C2 1.99 2 2.98 2 4 C-0.3125 6.25 -0.3125 6.25 -3 8 C-3.99 7.67 -4.98 7.34 -6 7 C-4.02 4.69 -2.04 2.38 0 0 Z " fill="#9C9CA0" transform="translate(225,203)"/>
<path d="M0 0 C0.1875 2.375 0.1875 2.375 0 5 C-0.99 5.66 -1.98 6.32 -3 7 C-3 6.34 -3 5.68 -3 5 C-3.99 4.67 -4.98 4.34 -6 4 C-5.34 3.67 -4.68 3.34 -4 3 C-4 2.34 -4 1.68 -4 1 C-2 0 -2 0 0 0 Z " fill="#7C7B81" transform="translate(333,199)"/>
<path d="M0 0 C0.66 0.99 1.32 1.98 2 3 C0.25 5.0625 0.25 5.0625 -2 7 C-4.25 6.75 -4.25 6.75 -6 6 C-4 4 -2 2 0 0 Z " fill="#8F8E93" transform="translate(233,196)"/>
<path d="M0 0 C0.53625 0.165 1.0725 0.33 1.625 0.5 C4.45886009 1.09660212 7.1119806 1.0656368 10 1 C7.09907498 2.93395001 6.10325263 3.30131941 2.8125 3.625 C1.554375 3.74875 0.29625 3.8725 -1 4 C-0.67 2.68 -0.34 1.36 0 0 Z " fill="#96969D" transform="translate(129,369)"/>
<path d="M0 0 C1.32 0 2.64 0 4 0 C4.66 0.66 5.32 1.32 6 2 C4.35 3.32 2.7 4.64 1 6 C0.34 4.35 -0.32 2.7 -1 1 C-0.67 0.67 -0.34 0.34 0 0 Z " fill="#85848A" transform="translate(184,345)"/>
<path d="M0 0 C1.98 0 3.96 0 6 0 C6.66 2.64 7.32 5.28 8 8 C6.85073734 7.04578192 5.70569459 6.08647955 4.5625 5.125 C3.92441406 4.59132813 3.28632813 4.05765625 2.62890625 3.5078125 C1 2 1 2 0 0 Z " fill="#A6A4A9" transform="translate(134,305)"/>
<path d="M0 0 C0.66 0 1.32 0 2 0 C2 0.66 2 1.32 2 2 C2.66 2.33 3.32 2.66 4 3 C1.03 5.475 1.03 5.475 -2 8 C-1.47731534 5.23723823 -0.89130413 2.6739124 0 0 Z " fill="#86858A" transform="translate(256,274)"/>
<path d="M0 0 C0.66 0.99 1.32 1.98 2 3 C-0.31 4.65 -2.62 6.3 -5 8 C-5.66 7.67 -6.32 7.34 -7 7 C-4.66666667 4.66666667 -2.33333333 2.33333333 0 0 Z " fill="#949398" transform="translate(249,180)"/>
<path d="M0 0 C1.32789969 2.1871289 2.04752686 3.47720456 1.8125 6.0625 C0.89199398 8.25755282 -0.21596223 9.44866281 -2 11 C-1.125 3.375 -1.125 3.375 0 0 Z " fill="#AFAFB2" transform="translate(107,361)"/>
<path d="M0 0 C0.66 0.33 1.32 0.66 2 1 C2 4 2 4 0.75 5.6875 C-1 7 -1 7 -5 7 C-5 5 -5 5 -2.5 2.375 C-1.675 1.59125 -0.85 0.8075 0 0 Z " fill="#98989C" transform="translate(281,147)"/>
<path d="M0 0 C4 4.5 4 4.5 4 9 C3.01 8.67 2.02 8.34 1 8 C1 6.68 1 5.36 1 4 C0.01 4 -0.98 4 -2 4 C-2.33 3.01 -2.66 2.02 -3 1 C-2.01 0.67 -1.02 0.34 0 0 Z " fill="#969698" transform="translate(378,125)"/>
<path d="M0 0 C2.475 0.495 2.475 0.495 5 1 C5 1.66 5 2.32 5 3 C5.66 3.33 6.32 3.66 7 4 C7.625 6.0625 7.625 6.0625 8 8 C6.85073734 7.04578192 5.70569459 6.08647955 4.5625 5.125 C3.92441406 4.59132813 3.28632813 4.05765625 2.62890625 3.5078125 C1 2 1 2 0 0 Z " fill="#A9A8AC" transform="translate(142,313)"/>
<path d="M0 0 C0.66 0 1.32 0 2 0 C4 3 4 3 3.625 5.1875 C3.41875 5.785625 3.2125 6.38375 3 7 C2.34 7 1.68 7 1 7 C0.34 5.68 -0.32 4.36 -1 3 C-0.34 3 0.32 3 1 3 C0.67 2.01 0.34 1.02 0 0 Z " fill="#7B7A7F" transform="translate(181,346)"/>
<path d="M0 0 C0.66 0 1.32 0 2 0 C2.33 0.99 2.66 1.98 3 3 C1.35 4.32 -0.3 5.64 -2 7 C-2.33 5.35 -2.66 3.7 -3 2 C-2.01 1.67 -1.02 1.34 0 1 C0 0.67 0 0.34 0 0 Z " fill="#87868C" transform="translate(267,264)"/>
<path d="M0 0 C1.98 0 3.96 0 6 0 C6.625 1.875 6.625 1.875 7 4 C6.34 4.66 5.68 5.32 5 6 C3.35 4.02 1.7 2.04 0 0 Z " fill="#A5A4A9" transform="translate(150,321)"/>
<path d="M0 0 C0.99 0.33 1.98 0.66 3 1 C3 1.66 3 2.32 3 3 C0.6875 4.6875 0.6875 4.6875 -2 6 C-2.99 5.67 -3.98 5.34 -5 5 C-3.35 3.35 -1.7 1.7 0 0 Z " fill="#8B8A8F" transform="translate(265,164)"/>
<path d="M0 0 C0.66 0.66 1.32 1.32 2 2 C0.35 3.32 -1.3 4.64 -3 6 C-3.33 4.68 -3.66 3.36 -4 2 C-2.68 1.34 -1.36 0.68 0 0 Z " fill="#89888E" transform="translate(204,329)"/>
<path d="M0 0 C1.41377341 2.63904371 2.37240135 5.07120629 3 8 C1.02 6.35 -0.96 4.7 -3 3 C-2.01 2.01 -1.02 1.02 0 0 Z " fill="#A3A1A5" transform="translate(163,329)"/>
<path d="" fill="#FFFFFF" transform="translate(0,0)"/>
<path d="" fill="#FFFFFF" transform="translate(0,0)"/>
<path d="" fill="#FFFFFF" transform="translate(0,0)"/>
<path d="" fill="#FFFFFF" transform="translate(0,0)"/>
<path d="" fill="#FFFFFF" transform="translate(0,0)"/>
<path d="" fill="#FFFFFF" transform="translate(0,0)"/>
<path d="" fill="#FFFFFF" transform="translate(0,0)"/>
<path d="" fill="#FFFFFF" transform="translate(0,0)"/>
<path d="" fill="#FFFFFF" transform="translate(0,0)"/>
<path d="" fill="#FFFFFF" transform="translate(0,0)"/>
<path d="" fill="#FFFFFF" transform="translate(0,0)"/>
<path d="" fill="#FFFFFF" transform="translate(0,0)"/>
<path d="" fill="#FFFFFF" transform="translate(0,0)"/>
<path d="" fill="#FFFFFF" transform="translate(0,0)"/>
<path d="" fill="#FFFFFF" transform="translate(0,0)"/>
<path d="" fill="#FFFFFF" transform="translate(0,0)"/>
<path d="" fill="#FFFFFF" transform="translate(0,0)"/>
<path d="" fill="#FFFFFF" transform="translate(0,0)"/>
<path d="" fill="#FFFFFF" transform="translate(0,0)"/>
<path d="" fill="#FFFFFF" transform="translate(0,0)"/>
<path d="" fill="#FFFFFF" transform="translate(0,0)"/>
<path d="" fill="#FFFFFF" transform="translate(0,0)"/>
<path d="" fill="#FFFFFF" transform="translate(0,0)"/>
<path d="" fill="#FFFFFF" transform="translate(0,0)"/>
<path d="" fill="#FFFFFF" transform="translate(0,0)"/>
<path d="" fill="#FFFFFF" transform="translate(0,0)"/>
<path d="" fill="#FFFFFF" transform="translate(0,0)"/>
<path d="" fill="#FFFFFF" transform="translate(0,0)"/>
<path d="" fill="#FFFFFF" transform="translate(0,0)"/>
<path d="" fill="#FFFFFF" transform="translate(0,0)"/>
<path d="" fill="#FFFFFF" transform="translate(0,0)"/>
<path d="" fill="#FFFFFF" transform="translate(0,0)"/>
<path d="" fill="#FFFFFF" transform="translate(0,0)"/>
<path d="" fill="#FFFFFF" transform="translate(0,0)"/>
<path d="" fill="#FFFFFF" transform="translate(0,0)"/>
<path d="" fill="#FFFFFF" transform="translate(0,0)"/>
<path d="" fill="#FFFFFF" transform="translate(0,0)"/>
<path d="" fill="#FFFFFF" transform="translate(0,0)"/>
<path d="" fill="#FFFFFF" transform="translate(0,0)"/>
<path d="" fill="#FFFFFF" transform="translate(0,0)"/>
<path d="" fill="#FFFFFF" transform="translate(0,0)"/>
<path d="" fill="#FFFFFF" transform="translate(0,0)"/>
<path d="" fill="#FFFFFF" transform="translate(0,0)"/>
<path d="" fill="#FFFFFF" transform="translate(0,0)"/>
<path d="" fill="#FFFFFF" transform="translate(0,0)"/>
<path d="" fill="#FFFFFF" transform="translate(0,0)"/>
<path d="" fill="#FFFFFF" transform="translate(0,0)"/>
<path d="" fill="#FFFFFF" transform="translate(0,0)"/>
<path d="" fill="#FFFFFF" transform="translate(0,0)"/>
<path d="" fill="#FFFFFF" transform="translate(0,0)"/>
<path d="" fill="#FFFFFF" transform="translate(0,0)"/>
<path d="" fill="#FFFFFF" transform="translate(0,0)"/>
<path d="" fill="#FFFFFF" transform="translate(0,0)"/>
<path d="" fill="#FFFFFF" transform="translate(0,0)"/>
<path d="" fill="#FFFFFF" transform="translate(0,0)"/>
<path d="" fill="#FFFFFF" transform="translate(0,0)"/>
<path d="" fill="#FFFFFF" transform="translate(0,0)"/>
<path d="" fill="#FFFFFF" transform="translate(0,0)"/>
<path d="" fill="#FFFFFF" transform="translate(0,0)"/>
<path d="" fill="#FFFFFF" transform="translate(0,0)"/>
<path d="" fill="#FFFFFF" transform="translate(0,0)"/>
<path d="" fill="#FFFFFF" transform="translate(0,0)"/>
<path d="" fill="#FFFFFF" transform="translate(0,0)"/>
<path d="" fill="#FFFFFF" transform="translate(0,0)"/>
<path d="" fill="#FFFFFF" transform="translate(0,0)"/>
<path d="" fill="#FFFFFF" transform="translate(0,0)"/>
<path d="" fill="#FFFFFF" transform="translate(0,0)"/>
<path d="" fill="#FFFFFF" transform="translate(0,0)"/>
<path d="" fill="#FFFFFF" transform="translate(0,0)"/>
<path d="" fill="#FFFFFF" transform="translate(0,0)"/>
<path d="" fill="#FFFFFF" transform="translate(0,0)"/>
<path d="" fill="#FFFFFF" transform="translate(0,0)"/>
<path d="" fill="#FFFFFF" transform="translate(0,0)"/>
<path d="" fill="#FFFFFF" transform="translate(0,0)"/>
<path d="" fill="#FFFFFF" transform="translate(0,0)"/>
<path d="" fill="#FFFFFF" transform="translate(0,0)"/>
<path d="" fill="#FFFFFF" transform="translate(0,0)"/>
<path d="" fill="#FFFFFF" transform="translate(0,0)"/>
<path d="" fill="#FFFFFF" transform="translate(0,0)"/>
<path d="" fill="#FFFFFF" transform="translate(0,0)"/>
<path d="" fill="#FFFFFF" transform="translate(0,0)"/>
<path d="" fill="#FFFFFF" transform="translate(0,0)"/>
<path d="" fill="#FFFFFF" transform="translate(0,0)"/>
<path d="" fill="#FFFFFF" transform="translate(0,0)"/>
<path d="" fill="#FFFFFF" transform="translate(0,0)"/>
<path d="" fill="#FFFFFF" transform="translate(0,0)"/>
<path d="" fill="#FFFFFF" transform="translate(0,0)"/>
<path d="" fill="#FFFFFF" transform="translate(0,0)"/>
<path d="" fill="#FFFFFF" transform="translate(0,0)"/>
<path d="" fill="#FFFFFF" transform="translate(0,0)"/>
<path d="" fill="#FFFFFF" transform="translate(0,0)"/>
<path d="" fill="#FFFFFF" transform="translate(0,0)"/>
</svg>
