<?xml version="1.0" encoding="UTF-8"?>
<svg version="1.1" xmlns="http://www.w3.org/2000/svg" width="509" height="490">
<path d="M0 0 C0.99 0 1.98 0 3 0 C3 0.66 3 1.32 3 2 C3.61921967 2.00135653 4.23843934 2.00271306 4.87642324 2.00411069 C41.54340674 2.08468982 78.21035094 2.1756151 114.87727454 2.28005161 C119.27593021 2.29257109 123.67458612 2.30500377 128.07324219 2.31738281 C128.94896769 2.31984881 129.8246932 2.3223148 130.72695585 2.32485552 C144.92285311 2.36462318 159.11875837 2.39735275 173.31467895 2.42749982 C187.87153247 2.45856935 202.42835191 2.4971593 216.98516715 2.54279006 C225.97381958 2.57072765 234.96244696 2.59273772 243.95113124 2.60726251 C250.10769778 2.61777175 256.26421593 2.63555895 262.42074607 2.65916704 C265.97737562 2.67258745 269.5339371 2.68270546 273.09059334 2.68421364 C276.93915467 2.68592904 280.78755903 2.70292223 284.63607788 2.7215271 C285.77030005 2.71959237 286.90452222 2.71765763 288.07311475 2.71566427 C289.09773175 2.72312976 290.12234875 2.73059525 291.17801476 2.73828697 C292.51197228 2.74170446 292.51197228 2.74170446 293.87287843 2.74519098 C296 3 296 3 298 5 C298.26450634 7.4801445 298.26450634 7.4801445 298.28520203 10.67596436 C298.29781067 11.8870134 298.31041931 13.09806244 298.32341003 14.34580994 C298.32737201 15.6976618 298.33113401 17.04951426 298.3347168 18.40136719 C298.34565507 19.8218908 298.3574461 21.24240806 298.37002563 22.66291809 C298.40182279 26.55425546 298.42097675 30.44556529 298.43764853 34.33699322 C298.45716957 38.48725578 298.48689863 42.63744767 298.51509094 46.78765869 C298.56138701 53.83969442 298.59960689 60.89174001 298.63305664 67.94384766 C298.66665533 75.01195016 298.70780732 82.07994532 298.75805664 89.14794922 C299.02813066 127.25652898 299.08798628 165.35487412 298.61431527 203.46223164 C298.58215963 206.06772291 298.55149812 208.67322876 298.52100182 211.27873993 C298.47279445 215.32702701 298.41872084 219.37519265 298.35949111 223.42333317 C298.33827393 224.90768656 298.31855247 226.39206216 298.30040574 227.87645626 C298.275101 229.89566873 298.24289131 231.91479122 298.21028137 233.93389893 C298.19379453 235.06402027 298.17730768 236.19414162 298.16032124 237.35850906 C298 240 298 240 297 242 C259.45280049 242.06860565 221.90561039 242.121498 184.35836092 242.15319599 C179.92966239 242.15694829 175.50096398 242.16083124 171.07226562 242.16479492 C170.19055889 242.16558185 169.30885215 242.16636878 168.40042703 242.16717956 C154.10750228 242.18024798 139.81461357 242.20390969 125.52171023 242.23145839 C110.86544199 242.2594727 96.20919268 242.27616782 81.55289876 242.28226548 C72.50278073 242.2863902 63.45276457 242.29943661 54.40267788 242.3237494 C48.20407861 242.33955759 42.00553232 242.34441157 35.80691434 242.34050413 C32.22592541 242.33857487 28.645115 242.34161616 25.06415749 242.35761642 C21.18932103 242.37480419 17.31472043 242.3689969 13.43984985 242.36076355 C12.29784579 242.36950207 11.15584172 242.3782406 9.97923148 242.38724393 C8.43185579 242.37828421 8.43185579 242.37828421 6.85321999 242.36914349 C5.95783945 242.37028265 5.06245891 242.37142181 4.13994563 242.37259549 C3.43376357 242.24963898 2.72758151 242.12668247 2 242 C-0.58936593 238.1159511 -0.26883626 234.90188189 -0.23377991 230.39916992 C-0.23478319 229.5100699 -0.23578647 228.62096989 -0.23682016 227.70492744 C-0.23777588 224.71335315 -0.22440801 221.72201151 -0.21118164 218.73046875 C-0.20898124 216.59026663 -0.20767512 214.45006343 -0.2071991 212.30986023 C-0.20426082 207.69358327 -0.19499623 203.07737684 -0.18089485 198.46112061 C-0.15865676 191.15718668 -0.15054262 183.85327908 -0.14439392 176.54931641 C-0.13299942 164.98856249 -0.11226859 153.42784732 -0.08749622 141.86711502 C-0.04325242 121.1884858 -0.00994209 100.50984364 0.01274782 79.83117962 C0.02113939 72.5760657 0.03515005 65.32099078 0.05372036 58.06589603 C0.06439987 53.54100703 0.07096048 49.01611837 0.07652092 44.49122047 C0.07997776 42.39951013 0.08517674 40.3078018 0.09228897 38.21610069 C0.6435066 23.50663159 0.6435066 23.50663159 -1 9 C-1.66 8.67 -2.32 8.34 -3 8 C-3 7.34 -3 6.68 -3 6 C-2.34 6 -1.68 6 -1 6 C-0.67 4.02 -0.34 2.04 0 0 Z M17 21 C16.89997463 23.62794585 16.86559582 26.22967782 16.87301636 28.8581543 C16.87145637 29.69134784 16.86989638 30.52454138 16.86828911 31.38298321 C16.86427555 34.19674597 16.86747013 37.01045551 16.87060547 39.82421875 C16.86925159 41.83257072 16.86747173 43.84092244 16.86529541 45.84927368 C16.86071953 51.32018767 16.86251127 56.79108289 16.8656745 62.26199722 C16.8681973 67.97373761 16.86586078 73.68547635 16.86428833 79.3972168 C16.8624664 88.99105113 16.86487355 98.58487777 16.86962891 108.17871094 C16.87507157 119.28782231 16.87330893 130.39691534 16.8678025 141.50602627 C16.86327203 151.02530544 16.8626205 160.54457908 16.86524117 170.06385899 C16.86680431 175.75753137 16.8669967 181.45119511 16.86370468 187.14486694 C16.86082693 192.49635049 16.86279989 197.84781026 16.86859894 203.19929123 C16.86992705 205.16941666 16.86953156 207.13954408 16.86733627 209.10966873 C16.86462677 211.78708855 16.86800343 214.4644309 16.87301636 217.1418457 C16.87078564 217.93200419 16.86855491 218.72216269 16.86625659 219.53626537 C16.55422967 223.06149337 16.55422967 223.06149337 18 226 C19.4074277 226.09654482 20.81968131 226.12371865 22.2304163 226.12304783 C23.14854038 226.12503888 24.06666447 226.12702993 25.0126105 226.12908131 C26.03301706 226.12616847 27.05342362 226.12325563 28.10475159 226.12025452 C29.17958028 226.12110894 30.25440898 226.12196337 31.36180824 226.12284368 C34.99325652 226.12450167 38.62465944 226.11897192 42.25610352 226.11352539 C44.84735106 226.11324356 47.43859869 226.11340117 50.02984619 226.1139679 C55.62398823 226.11449331 61.21811865 226.11134466 66.81225777 226.10573006 C74.90053307 226.09761746 82.98880274 226.09500008 91.07708167 226.09374207 C104.19844501 226.09155117 117.31980214 226.08489005 130.44116211 226.07543945 C143.19051075 226.06626632 155.93985771 226.059185 168.68920898 226.05493164 C169.86718465 226.05453756 169.86718465 226.05453756 171.06895781 226.05413551 C175.00849791 226.05283051 178.94803801 226.05156679 182.88757813 226.05032361 C215.59172327 226.03994981 248.29586081 226.02233047 281 226 C282.57001331 222.85997338 282.13679953 219.50656447 282.12698364 216.05955505 C282.12932363 214.81460843 282.12932363 214.81460843 282.13171089 213.54451138 C282.13571759 210.74767407 282.13253251 207.9508905 282.12939453 205.15405273 C282.13074871 203.15540536 282.13252873 201.15675823 282.13470459 199.15811157 C282.13927668 193.71824751 282.13749035 188.27840234 282.1343255 182.83853793 C282.13180111 177.15749989 282.13413963 171.47646352 282.13571167 165.79542542 C282.13753298 156.25464588 282.1351279 146.71387407 282.13037109 137.1730957 C282.12492699 126.12587949 282.12669236 115.07868172 282.1321975 104.03146595 C282.13672786 94.56312159 282.1373796 85.09478281 282.13475883 75.62643772 C282.13319583 69.96407936 282.13300294 64.30172968 282.13629532 58.63937187 C282.13917297 53.31824373 282.1372003 47.99713949 282.13140106 42.67601395 C282.13007296 40.71717557 282.13046842 38.7583352 282.13266373 36.7994976 C282.13537323 34.13745785 282.13199659 31.47549601 282.12698364 28.8134613 C282.13032973 27.63508317 282.13032973 27.63508317 282.13374341 26.43289942 C282.4429876 22.92388907 282.4429876 22.92388907 281 20 C279.59353907 19.90256572 278.18220882 19.87444568 276.77237701 19.87415886 C275.85486963 19.87155111 274.93736224 19.86894336 273.9920516 19.86625659 C272.46246494 19.86960268 272.46246494 19.86960268 270.90197754 19.87301636 C269.29079284 19.87067637 269.29079284 19.87067637 267.64705896 19.86828911 C264.01794757 19.86427404 260.38887739 19.86747071 256.75976562 19.87060547 C254.17014033 19.86925165 251.58051523 19.86747183 248.9908905 19.86529541 C242.66934886 19.86083708 236.34781906 19.86181446 230.02627695 19.86470805 C224.8909148 19.86696184 219.75555598 19.86727471 214.62019348 19.86618423 C213.89069769 19.866031 213.16120189 19.86587777 212.40960017 19.86571989 C210.92787643 19.86540018 209.4461527 19.86507597 207.96442896 19.8647473 C194.05389966 19.86189232 180.14337693 19.86517981 166.2328487 19.87054767 C154.28397266 19.87501572 142.33510633 19.87423979 130.38623047 19.86962891 C116.52718047 19.86428345 102.66813625 19.86216702 88.80908537 19.86524117 C87.33265909 19.86555974 85.8562328 19.86587411 84.37980652 19.86618423 C83.29001857 19.86641565 83.29001857 19.86641565 82.1782147 19.86665174 C77.04603923 19.86751698 71.91386741 19.86605386 66.7816925 19.86370468 C59.88058613 19.86061539 52.97949848 19.86279898 46.07839394 19.86859894 C43.53742313 19.86992732 40.99645078 19.86953111 38.45548058 19.86733627 C35.0029732 19.86462781 31.55052595 19.86800215 28.09802246 19.87301636 C27.07829802 19.87078564 26.05857358 19.86855491 25.0079484 19.86625659 C24.09044101 19.86886434 23.17293363 19.87147209 22.22762299 19.87415886 C21.4296132 19.87432121 20.63160342 19.87448356 19.80941153 19.87465084 C17.97861358 19.80253724 17.97861358 19.80253724 17 21 Z " fill="#7A7980" transform="translate(100,119)"/>
<path d="M0 0 C0.99 0 1.98 0 3 0 C3 0.66 3 1.32 3 2 C3.61921967 2.00135653 4.23843934 2.00271306 4.87642324 2.00411069 C41.54340674 2.08468982 78.21035094 2.1756151 114.87727454 2.28005161 C119.27593021 2.29257109 123.67458612 2.30500377 128.07324219 2.31738281 C128.94896769 2.31984881 129.8246932 2.3223148 130.72695585 2.32485552 C144.92285311 2.36462318 159.11875837 2.39735275 173.31467895 2.42749982 C187.87153247 2.45856935 202.42835191 2.4971593 216.98516715 2.54279006 C225.97381958 2.57072765 234.96244696 2.59273772 243.95113124 2.60726251 C250.10769778 2.61777175 256.26421593 2.63555895 262.42074607 2.65916704 C265.97737562 2.67258745 269.5339371 2.68270546 273.09059334 2.68421364 C276.93915467 2.68592904 280.78755903 2.70292223 284.63607788 2.7215271 C285.77030005 2.71959237 286.90452222 2.71765763 288.07311475 2.71566427 C289.09773175 2.72312976 290.12234875 2.73059525 291.17801476 2.73828697 C292.51197228 2.74170446 292.51197228 2.74170446 293.87287843 2.74519098 C296 3 296 3 298 5 C298.26450634 7.4801445 298.26450634 7.4801445 298.28520203 10.67596436 C298.29781067 11.8870134 298.31041931 13.09806244 298.32341003 14.34580994 C298.32737201 15.6976618 298.33113401 17.04951426 298.3347168 18.40136719 C298.34565507 19.8218908 298.3574461 21.24240806 298.37002563 22.66291809 C298.40182279 26.55425546 298.42097675 30.44556529 298.43764853 34.33699322 C298.45716957 38.48725578 298.48689863 42.63744767 298.51509094 46.78765869 C298.56138701 53.83969442 298.59960689 60.89174001 298.63305664 67.94384766 C298.66665533 75.01195016 298.70780732 82.07994532 298.75805664 89.14794922 C299.02813066 127.25652898 299.08798628 165.35487412 298.61431527 203.46223164 C298.58215963 206.06772291 298.55149812 208.67322876 298.52100182 211.27873993 C298.47279445 215.32702701 298.41872084 219.37519265 298.35949111 223.42333317 C298.33827393 224.90768656 298.31855247 226.39206216 298.30040574 227.87645626 C298.275101 229.89566873 298.24289131 231.91479122 298.21028137 233.93389893 C298.19379453 235.06402027 298.17730768 236.19414162 298.16032124 237.35850906 C298 240 298 240 297 242 C259.45280049 242.06860565 221.90561039 242.121498 184.35836092 242.15319599 C179.92966239 242.15694829 175.50096398 242.16083124 171.07226562 242.16479492 C170.19055889 242.16558185 169.30885215 242.16636878 168.40042703 242.16717956 C154.10750228 242.18024798 139.81461357 242.20390969 125.52171023 242.23145839 C110.86544199 242.2594727 96.20919268 242.27616782 81.55289876 242.28226548 C72.50278073 242.2863902 63.45276457 242.29943661 54.40267788 242.3237494 C48.20407861 242.33955759 42.00553232 242.34441157 35.80691434 242.34050413 C32.22592541 242.33857487 28.645115 242.34161616 25.06415749 242.35761642 C21.18932103 242.37480419 17.31472043 242.3689969 13.43984985 242.36076355 C12.29784579 242.36950207 11.15584172 242.3782406 9.97923148 242.38724393 C8.43185579 242.37828421 8.43185579 242.37828421 6.85321999 242.36914349 C5.95783945 242.37028265 5.06245891 242.37142181 4.13994563 242.37259549 C3.43376357 242.24963898 2.72758151 242.12668247 2 242 C-0.58936593 238.1159511 -0.26883626 234.90188189 -0.23377991 230.39916992 C-0.23478319 229.5100699 -0.23578647 228.62096989 -0.23682016 227.70492744 C-0.23777588 224.71335315 -0.22440801 221.72201151 -0.21118164 218.73046875 C-0.20898124 216.59026663 -0.20767512 214.45006343 -0.2071991 212.30986023 C-0.20426082 207.69358327 -0.19499623 203.07737684 -0.18089485 198.46112061 C-0.15865676 191.15718668 -0.15054262 183.85327908 -0.14439392 176.54931641 C-0.13299942 164.98856249 -0.11226859 153.42784732 -0.08749622 141.86711502 C-0.04325242 121.1884858 -0.00994209 100.50984364 0.01274782 79.83117962 C0.02113939 72.5760657 0.03515005 65.32099078 0.05372036 58.06589603 C0.06439987 53.54100703 0.07096048 49.01611837 0.07652092 44.49122047 C0.07997776 42.39951013 0.08517674 40.3078018 0.09228897 38.21610069 C0.6435066 23.50663159 0.6435066 23.50663159 -1 9 C-1.66 8.67 -2.32 8.34 -3 8 C-3 7.34 -3 6.68 -3 6 C-2.34 6 -1.68 6 -1 6 C-0.67 4.02 -0.34 2.04 0 0 Z M2 6 C1.979375 44.589375 1.95875 83.17875 1.9375 122.9375 C1.928396 135.14484131 1.91929199 147.35218262 1.90991211 159.92944336 C1.90656872 170.82410417 1.90656872 170.82410417 1.90455627 181.71876526 C1.90362053 186.59039256 1.8998569 191.46200909 1.89442444 196.33363342 C1.88760013 202.53490643 1.88550235 208.73616362 1.88692772 214.93744004 C1.88662937 217.22129343 1.884626 219.50514735 1.88078487 221.78899753 C1.87586014 224.85808568 1.87699186 227.92711117 1.87974548 230.99620056 C1.87683282 231.90351205 1.87392015 232.81082354 1.87091923 233.74562931 C1.48595903 237.68784157 1.48595903 237.68784157 3 241 C4.56384575 241.09697192 6.13208815 241.12371657 7.69893742 241.12304783 C8.72156337 241.12503888 9.74418932 241.12702993 10.79780394 241.12908131 C12.50350645 241.12471205 12.50350645 241.12471205 14.2436676 241.12025452 C15.44100287 241.12110894 16.63833814 241.12196337 17.87195629 241.12284368 C21.21037969 241.12421189 24.54874518 241.12106435 27.88716161 241.11606562 C31.48158799 241.11176448 35.07601245 241.1132073 38.67044067 241.1139679 C44.90300995 241.11449335 51.1355688 241.11134436 57.36813545 241.10573006 C66.37948339 241.09761789 75.39082625 241.09500013 84.40217745 241.09374207 C99.02096947 241.0915511 113.63975592 241.08488981 128.25854492 241.07543945 C142.46297173 241.06626649 156.66739701 241.05919655 170.87182617 241.05493164 C171.75568656 241.05466364 172.63954695 241.05439565 173.55019099 241.05411953 C180.46211606 241.05204022 187.37404116 241.05008325 194.28596628 241.04816496 C228.19064929 241.03872392 262.09531838 241.01860736 296 241 C296 163.45 296 85.9 296 6 C198.98 6 101.96 6 2 6 Z " fill="#D2D1D4" transform="translate(100,119)"/>
<path d="M0 0 C97.68 0 195.36 0 296 0 C296.185625 24.29625 296.37125 48.5925 296.5625 73.625 C296.62381104 81.1113916 296.68512207 88.5977832 296.74829102 96.31103516 C297.0008125 130.36882217 297.05049476 164.41371706 296.62250781 198.47042418 C296.58997344 201.07555321 296.55896353 203.6806973 296.5281086 206.28584671 C296.47929504 210.33340894 296.42450768 214.3808454 296.3644135 218.42825556 C296.34284774 219.91223665 296.32275439 221.39623995 296.30421138 222.8802619 C296.27832605 224.89886883 296.24549683 226.91738322 296.21226501 228.93588257 C296.18696921 230.63049905 296.18696921 230.63049905 296.16116238 232.3593502 C296 235 296 235 295 237 C197.65 237 100.3 237 0 237 C-0.33 236.34 -0.66 235.68 -1 235 C96.35 235.33 193.7 235.66 294 236 C294 158.45 294 80.9 294 1 C196.98 1 99.96 1 0 1 C0 0.67 0 0.34 0 0 Z " fill="#AAAAB0" transform="translate(102,124)"/>
<path d="M0 0 C0.99 0 1.98 0 3 0 C3 0.66 3 1.32 3 2 C99.69 2.33 196.38 2.66 296 3 C296 3.33 296 3.66 296 4 C198.65 4 101.3 4 1 4 C1 9.28 1 14.56 1 20 C0.67 20 0.34 20 0 20 C-0.07347656 18.82630859 -0.07347656 18.82630859 -0.1484375 17.62890625 C-0.22320312 16.61699219 -0.29796875 15.60507813 -0.375 14.5625 C-0.44460937 13.55316406 -0.51421875 12.54382813 -0.5859375 11.50390625 C-0.72257812 10.67761719 -0.85921875 9.85132813 -1 9 C-1.66 8.67 -2.32 8.34 -3 8 C-3 7.34 -3 6.68 -3 6 C-2.34 6 -1.68 6 -1 6 C-0.67 4.02 -0.34 2.04 0 0 Z " fill="#FFFEFF" transform="translate(100,119)"/>
<path d="M0 0 C0.99 0 1.98 0 3 0 C3 0.66 3 1.32 3 2 C5.64 2.33 8.28 2.66 11 3 C11 3.33 11 3.66 11 4 C7.7 4 4.4 4 1 4 C1 9.28 1 14.56 1 20 C0.67 20 0.34 20 0 20 C-0.07347656 18.82630859 -0.07347656 18.82630859 -0.1484375 17.62890625 C-0.22320312 16.61699219 -0.29796875 15.60507813 -0.375 14.5625 C-0.44460937 13.55316406 -0.51421875 12.54382813 -0.5859375 11.50390625 C-0.72257812 10.67761719 -0.85921875 9.85132813 -1 9 C-1.66 8.67 -2.32 8.34 -3 8 C-3 7.34 -3 6.68 -3 6 C-2.34 6 -1.68 6 -1 6 C-0.67 4.02 -0.34 2.04 0 0 Z " fill="#F5F5F6" transform="translate(100,119)"/>
<path d="" fill="#FFFFFF" transform="translate(0,0)"/>
<path d="" fill="#FFFFFF" transform="translate(0,0)"/>
<path d="" fill="#FFFFFF" transform="translate(0,0)"/>
<path d="" fill="#FFFFFF" transform="translate(0,0)"/>
<path d="" fill="#FFFFFF" transform="translate(0,0)"/>
<path d="" fill="#FFFFFF" transform="translate(0,0)"/>
<path d="" fill="#FFFFFF" transform="translate(0,0)"/>
<path d="" fill="#FFFFFF" transform="translate(0,0)"/>
<path d="" fill="#FFFFFF" transform="translate(0,0)"/>
<path d="" fill="#FFFFFF" transform="translate(0,0)"/>
<path d="" fill="#FFFFFF" transform="translate(0,0)"/>
<path d="" fill="#FFFFFF" transform="translate(0,0)"/>
<path d="" fill="#FFFFFF" transform="translate(0,0)"/>
<path d="" fill="#FFFFFF" transform="translate(0,0)"/>
<path d="" fill="#FFFFFF" transform="translate(0,0)"/>
<path d="" fill="#FFFFFF" transform="translate(0,0)"/>
<path d="" fill="#FFFFFF" transform="translate(0,0)"/>
<path d="" fill="#FFFFFF" transform="translate(0,0)"/>
<path d="" fill="#FFFFFF" transform="translate(0,0)"/>
<path d="" fill="#FFFFFF" transform="translate(0,0)"/>
<path d="" fill="#FFFFFF" transform="translate(0,0)"/>
<path d="" fill="#FFFFFF" transform="translate(0,0)"/>
<path d="" fill="#FFFFFF" transform="translate(0,0)"/>
<path d="" fill="#FFFFFF" transform="translate(0,0)"/>
<path d="" fill="#FFFFFF" transform="translate(0,0)"/>
<path d="" fill="#FFFFFF" transform="translate(0,0)"/>
<path d="" fill="#FFFFFF" transform="translate(0,0)"/>
<path d="" fill="#FFFFFF" transform="translate(0,0)"/>
<path d="" fill="#FFFFFF" transform="translate(0,0)"/>
<path d="" fill="#FFFFFF" transform="translate(0,0)"/>
<path d="" fill="#FFFFFF" transform="translate(0,0)"/>
<path d="" fill="#FFFFFF" transform="translate(0,0)"/>
<path d="" fill="#FFFFFF" transform="translate(0,0)"/>
<path d="" fill="#FFFFFF" transform="translate(0,0)"/>
<path d="" fill="#FFFF00" transform="translate(0,0)"/>
<path d="" fill="#FFFFFF" transform="translate(0,0)"/>
<path d="" fill="#FFFFFF" transform="translate(0,0)"/>
<path d="" fill="#FFFFFF" transform="translate(0,0)"/>
<path d="" fill="#FFFFFF" transform="translate(0,0)"/>
<path d="" fill="#FFFFFF" transform="translate(0,0)"/>
<path d="" fill="#FFFFFF" transform="translate(0,0)"/>
<path d="" fill="#FFFFFF" transform="translate(0,0)"/>
<path d="" fill="#FFFFFF" transform="translate(0,0)"/>
<path d="" fill="#FFFFFF" transform="translate(0,0)"/>
<path d="" fill="#FFFFFF" transform="translate(0,0)"/>
<path d="" fill="#FFFFFF" transform="translate(0,0)"/>
<path d="" fill="#FFFFFF" transform="translate(0,0)"/>
<path d="" fill="#FFFFFF" transform="translate(0,0)"/>
<path d="" fill="#FFFFFF" transform="translate(0,0)"/>
<path d="" fill="#FFFFFF" transform="translate(0,0)"/>
<path d="" fill="#FFFFFF" transform="translate(0,0)"/>
</svg>
