<?xml version="1.0" encoding="UTF-8"?>
<svg version="1.1" xmlns="http://www.w3.org/2000/svg" width="509" height="490">
<path d="M0 0 C6.44349126 3.22174563 9.86513561 8.51157422 13.375 14.625 C13.98730469 15.68976563 14.59960938 16.75453125 15.23046875 17.8515625 C16.74840305 20.55234627 18.22674771 23.26809159 19.6875 26 C23.03420293 32.19363155 26.682889 38.19953853 30.31933594 44.22558594 C34.13284942 50.54519012 37.89620606 56.89183906 41.61425781 63.26806641 C44.32385596 67.90056747 47.13385863 72.46275502 50 77 C50.26586914 76.34999023 50.53173828 75.69998047 50.80566406 75.03027344 C54.19040224 66.85719832 54.19040224 66.85719832 58 64 C61.32359741 62.89038616 64.45917126 62.87181038 67.94540405 62.86628723 C69.16228409 62.86202225 70.37916412 62.85775726 71.63291931 62.85336304 C72.9784241 62.85371254 74.32392887 62.85417406 75.66943359 62.85473633 C77.08884266 62.85174359 78.5082509 62.8483408 79.92765808 62.84455872 C83.78101133 62.83572613 87.63434236 62.83338091 91.48770475 62.83274293 C93.89589513 62.832032 96.30407986 62.82989687 98.71226883 62.82724571 C107.11580005 62.81799473 115.51931542 62.81391051 123.92285156 62.81469727 C131.75266963 62.81529799 139.58241878 62.8047466 147.41221941 62.7889536 C154.13760686 62.77587228 160.8629718 62.77051362 167.58837187 62.77115268 C171.60376319 62.77140749 175.61909326 62.7685654 179.63447189 62.75797462 C183.41179245 62.7482837 187.18899333 62.74822126 190.96631813 62.75549126 C192.35060234 62.75653587 193.73489404 62.75418155 195.11916542 62.7481308 C197.01297131 62.74039071 198.9068181 62.74626414 200.80062866 62.75276184 C201.85918249 62.75221707 202.91773632 62.75167231 204.00836754 62.75111103 C210.29961458 63.27451155 213.90925805 65.207988 218 70 C219.07074507 73.2122352 219.13108191 75.52332887 219.14044189 78.90107727 C219.14615204 80.13341095 219.15186218 81.36574463 219.15774536 82.63542175 C219.1589907 84.00344839 219.1601158 85.37147513 219.16113281 86.73950195 C219.16576153 88.17846809 219.17078626 89.617433 219.17617798 91.05639648 C219.18929908 94.96765352 219.1957464 98.87889339 219.20018864 102.790169 C219.20311991 105.23403355 219.20722482 107.67789341 219.21169281 110.1217556 C219.22536715 117.76878853 219.23503404 125.41581075 219.2388947 133.06285506 C219.24337507 141.88882152 219.2609222 150.71463308 219.2898953 159.54055244 C219.31151557 166.36358339 219.32159917 173.18657078 219.32293582 180.00963563 C219.32398363 184.08432258 219.32988616 188.15886391 219.34775543 192.23351479 C219.3642421 196.06749453 219.36638883 199.90121929 219.35761642 203.73522186 C219.35684636 205.14047364 219.36118484 206.54573916 219.37107468 207.95095634 C219.3838076 209.87325303 219.37612078 211.79565231 219.36749268 213.7179718 C219.36895924 214.79257314 219.3704258 215.86717447 219.3719368 216.97433949 C218.75193673 222.01796448 217.03789949 225.15264172 213.12084961 228.35058594 C207.78065523 231.04504906 201.90124453 230.49195474 196.06640625 230.390625 C194.83333237 230.38496521 193.60025848 230.37930542 192.32981873 230.37347412 C188.40697761 230.35115549 184.48506321 230.30096423 180.5625 230.25 C177.89649774 230.22766801 175.23050418 230.21167969 172.56445312 230.1953125 C166.0426547 230.15130524 159.52139358 230.08443668 153 230 C153.14006973 230.79564362 153.28013947 231.59128723 153.42445374 232.41104126 C158.52780878 262.05615004 153.78550689 289.0274444 137 314 C136.29875 315.11375 135.5975 316.2275 134.875 317.375 C132.81500568 320.25899204 130.53572725 322.52157732 128 325 C127.52256348 325.46680176 127.04512695 325.93360352 126.55322266 326.41455078 C104.98505704 347.32210787 79.44943426 357.56807542 49.43505859 357.42163086 C28.61489371 356.94450864 6.98960426 350.88570896 -9 337 C-9.62648437 336.46375 -10.25296875 335.9275 -10.8984375 335.375 C-14.75407282 332.04969371 -18.42013453 328.6237902 -22 325 C-22.77859375 324.23042969 -23.5571875 323.46085937 -24.359375 322.66796875 C-43.32830147 302.98615778 -50.59691995 277.21160508 -50.34277344 250.41455078 C-50.2045736 243.89677375 -49.68741077 237.48004773 -49 231 C-50.01175797 231.00079559 -51.02351593 231.00159119 -52.06593323 231.00241089 C-61.61476937 231.00601788 -71.16306805 230.97815692 -80.71173191 230.9197216 C-85.62053124 230.89068602 -90.52885366 230.87262371 -95.43774414 230.87988281 C-100.17785318 230.88648454 -104.91702054 230.86394329 -109.65693474 230.82144547 C-111.46253036 230.81032922 -113.26822165 230.80960075 -115.07382393 230.81957626 C-117.60957797 230.8317867 -120.14247418 230.80660459 -122.67797852 230.77294922 C-123.79036896 230.79128059 -123.79036896 230.79128059 -124.92523193 230.8099823 C-130.13992024 230.68578284 -132.83743833 229.07900203 -136.66366482 225.57829475 C-139.48621741 222.24468504 -139.57350265 218.13456381 -139.54296875 213.9453125 C-138.4286991 207.90100087 -134.4064531 202.99489025 -131 198 C-130.00595014 196.40501319 -129.02544775 194.80145467 -128.0625 193.1875 C-127.58941406 192.39859375 -127.11632812 191.6096875 -126.62890625 190.796875 C-125.34299883 188.58893804 -124.08364709 186.37223395 -122.83984375 184.140625 C-122.26061157 183.10192261 -122.26061157 183.10192261 -121.66967773 182.04223633 C-120.91673675 180.6873826 -120.16726656 179.33059119 -119.42211914 177.97143555 C-117.00210588 173.60861789 -114.34137871 169.47921624 -111.54882812 165.34643555 C-108.8789318 161.30160994 -106.4474309 157.11937294 -104 152.9375 C-103.44675049 151.99720947 -102.89350098 151.05691895 -102.32348633 150.08813477 C-97.48626042 141.85745891 -92.69074269 133.6024241 -87.8918457 125.34936523 C-84.30762999 119.19887325 -80.63489935 113.12168952 -76.8671875 107.08203125 C-74.20873468 102.69391561 -71.71033856 98.21995802 -69.23120117 93.72851562 C-66.63876543 89.05097716 -63.86837015 84.51295385 -61 80 C-56.00968971 72.11895518 -51.06360147 64.28519707 -46.69140625 56.0390625 C-44.41558411 51.94994096 -41.95771737 47.98170609 -39.5 44 C-36.59016846 39.28529362 -33.70665864 34.59265142 -31.125 29.6875 C-28.08631008 24.0111203 -24.77478925 18.50425794 -21.4375 13 C-20.60532959 11.59947388 -20.60532959 11.59947388 -19.75634766 10.1706543 C-19.21671387 9.28933838 -18.67708008 8.40802246 -18.12109375 7.5 C-17.40070923 6.30890625 -17.40070923 6.30890625 -16.66577148 5.09375 C-12.20242231 -0.51634564 -6.69478993 -0.96714461 0 0 Z M-5 16 C-6.58364382 18.41793893 -8.11559314 20.84865176 -9.625 23.3125 C-10.53732061 24.78933428 -11.45008272 26.26589591 -12.36328125 27.7421875 C-13.03738037 28.83418457 -13.03738037 28.83418457 -13.72509766 29.94824219 C-15.39166514 32.63032436 -17.10039868 35.28430988 -18.8125 37.9375 C-21.74004723 42.52919821 -24.39487209 47.22040217 -27 52 C-28.47063922 54.67145629 -29.95258031 57.33646002 -31.4375 60 C-31.7969873 60.65250732 -32.15647461 61.30501465 -32.52685547 61.97729492 C-34.97371091 66.36056184 -37.65316185 70.52430252 -40.46264648 74.68310547 C-43.0393851 78.56642283 -45.42489567 82.561052 -47.8125 86.5625 C-48.33457031 87.43455078 -48.85664063 88.30660156 -49.39453125 89.20507812 C-52.88491969 95.06088913 -56.26034889 100.97097372 -59.57226562 106.92895508 C-64.00684051 114.86830651 -68.73484888 122.63177211 -73.43847656 130.41357422 C-76.03091704 134.70755709 -78.60836929 139.01051493 -81.1875 143.3125 C-82.18877427 144.98048544 -83.19007574 146.64845456 -84.19140625 148.31640625 C-85.93240299 151.21767443 -87.66986021 154.12098457 -89.40234375 157.02734375 C-93.69874955 164.22740535 -98.0715141 171.372165 -102.55126953 178.45996094 C-105.95783964 183.8661919 -109.10576731 189.39368446 -112.21875 194.97265625 C-112.78142578 195.98102539 -112.78142578 195.98102539 -113.35546875 197.00976562 C-114.12015162 198.38123609 -114.88316635 199.75363794 -115.64453125 201.12695312 C-117.41652468 204.29644653 -119.22002618 207.37996041 -121.28125 210.37109375 C-123.18240528 212.75551393 -123.18240528 212.75551393 -123 215 C-96.27 215 -69.54 215 -42 215 C-40.02 211.04 -38.04 207.08 -36 203 C-33.20258696 198.82758733 -30.40647709 194.77660264 -27.29296875 190.84375 C-25.80861312 189.1024072 -25.80861312 189.1024072 -26 187 C-25.39929688 186.7421875 -24.79859375 186.484375 -24.1796875 186.21875 C-21.79305836 184.8842907 -20.7656343 183.66386362 -19.125 181.5 C-8.02218552 168.51535256 8.87899102 160.78426136 25 156.125 C25.65000977 155.93381592 26.30001953 155.74263184 26.96972656 155.5456543 C34.81060494 153.46851925 42.95499504 152.85784137 51 152 C51.27608107 146.06367784 51.47339287 140.13124243 51.60424805 134.18994141 C51.65889201 132.17821039 51.7334427 130.16690155 51.82983398 128.15673828 C52.52741996 113.21273067 50.21941441 103.81668701 41.25733948 91.74858093 C39.62995865 89.48538381 38.32805871 87.10539208 37.0625 84.625 C32.86561287 76.73289446 28.1322692 69.14076506 23.50585938 61.49584961 C21.96377581 58.93996111 20.43509739 56.37632281 18.90625 53.8125 C16.52167781 49.83471999 14.04473435 45.93953186 11.5 42.0625 C8.19948887 36.98980007 5.19102662 31.83445116 2.34765625 26.48828125 C0.39055626 22.8747372 -1.73539452 19.42925973 -4 16 C-4.33 16 -4.66 16 -5 16 Z M1 183 C-0.6396875 184.0209375 -0.6396875 184.0209375 -2.3125 185.0625 C-18.50016836 196.73267952 -31.01422495 218.11405057 -34.3125 237.5625 C-37.39510731 264.17962847 -32.71677586 288.50358863 -16.25 310.0625 C-2.17216981 327.137891 18.81294798 340.38119326 41.12890625 342.6015625 C65.87805411 344.43516808 89.54099143 339.21474881 108.75390625 322.89453125 C115.28051925 317.17905307 115.28051925 317.17905307 120 310 C120.99 309.67 121.98 309.34 123 309 C125.3204808 306.21669107 127.13243101 303.09997492 129 300 C129.63808594 298.95199219 129.63808594 298.95199219 130.2890625 297.8828125 C131.70836129 295.30976115 132.86660813 292.71265262 134 290 C134.26377441 289.37915527 134.52754883 288.75831055 134.79931641 288.11865234 C139.46848486 276.65208095 140.57138444 265.51017431 140.5625 253.25 C140.56512848 252.55332214 140.56775696 251.85664429 140.57046509 251.13885498 C140.56711194 243.29224858 139.98648737 237.23509459 137 230 C136.03391312 229.99635437 135.06782623 229.99270874 134.07246399 229.98895264 C124.96452736 229.95199887 115.85692872 229.89422217 106.74924946 229.81609726 C102.06694964 229.77660107 97.38483849 229.74442315 92.70239258 229.72900391 C88.18287282 229.71385135 83.66387166 229.67943097 79.14458275 229.63169098 C77.42107846 229.61686267 75.69750014 229.60895815 73.97393227 229.60811615 C71.55798793 229.60574902 69.14347978 229.57869214 66.7277832 229.54589844 C65.66071136 229.55344398 65.66071136 229.55344398 64.57208252 229.56114197 C59.80394113 229.46111103 57.31238418 228.4300456 54 225 C52.76951543 221.3085463 52.78727419 217.84047161 52.71875 213.9921875 C52.70034058 213.19330109 52.68193115 212.39441467 52.66296387 211.57131958 C52.60426428 209.0059544 52.55160938 206.4405169 52.5 203.875 C52.24490378 191.56124303 51.81868593 179.29022443 51 167 C31.90727537 166.84913184 16.92668949 172.7614139 1 183 Z " fill="#74747B" transform="translate(218,64)"/>
<path d="M0 0 C6.44349126 3.22174563 9.86513561 8.51157422 13.375 14.625 C13.98730469 15.68976563 14.59960938 16.75453125 15.23046875 17.8515625 C16.74840305 20.55234627 18.22674771 23.26809159 19.6875 26 C23.17287759 32.47691421 27.02230121 38.73672895 30.86206055 45.0078125 C31.36648682 45.83796875 31.87091309 46.668125 32.390625 47.5234375 C32.84469727 48.26513184 33.29876953 49.00682617 33.76660156 49.77099609 C35.0659941 52.11926487 36.05416414 54.49083101 37 57 C35.68 57 34.36 57 33 57 C31.948125 57.185625 30.89625 57.37125 29.8125 57.5625 C28.884375 57.706875 27.95625 57.85125 27 58 C26.67 57.67 26.34 57.34 26 57 C25.67 59.31 25.34 61.62 25 64 C21.7726069 61.22199075 19.86396008 57.63219654 17.75 54 C15.01474148 49.36192872 12.24404843 44.76811028 9.3125 40.25 C6.42539445 35.76563004 3.86676203 31.15789881 1.3515625 26.45703125 C-1.39341794 21.42090182 -1.39341794 21.42090182 -5 17 C-5.34667725 17.59312988 -5.69335449 18.18625977 -6.05053711 18.79736328 C-17.68930544 38.68082037 -17.68930544 38.68082037 -23.0625 46.875 C-25.63521828 50.81330969 -27.93765399 54.67782647 -29.94140625 58.92578125 C-31.91112786 62.78527268 -34.2865666 66.40778441 -36.578125 70.08203125 C-40.05934378 75.68064668 -43.41581605 81.35527856 -46.78710938 87.02050781 C-49.41934426 91.42784958 -52.14900186 95.72967377 -55 100 C-55.89818846 101.59129921 -56.7735173 103.19572763 -57.625 104.8125 C-61.44778558 111.9105868 -65.56887968 118.82548147 -69.67675781 125.76074219 C-70.98539881 127.97529112 -72.28694569 130.19384187 -73.5859375 132.4140625 C-77.9111897 139.80379484 -82.29341183 147.14746808 -86.8046875 154.42578125 C-90.11467919 159.78933788 -93.33069488 165.21002066 -96.56665039 170.6184082 C-99.45024127 175.43262791 -102.35892747 180.22840321 -105.3125 185 C-108.98592699 190.93755181 -112.5125327 196.9514239 -116 203 C-117.20628008 200.66785852 -118.1654738 198.50357861 -119 196 C-119.33 196.99 -119.66 197.98 -120 199 C-120.99 197.68 -121.98 196.36 -123 195 C-122.34 195 -121.68 195 -121 195 C-121 194.34 -121 193.68 -121 193 C-122.32 192.67 -123.64 192.34 -125 192 C-125 193.32 -125 194.64 -125 196 C-126.32 196.33 -127.64 196.66 -129 197 C-126.88265952 186.84587255 -118.98106767 177.13814496 -113.52124023 168.45922852 C-107.23918132 158.46849875 -101.25622458 148.32120264 -95.32519531 138.11914062 C-93.5092673 134.9956253 -91.69244112 131.87263515 -89.875 128.75 C-89.27051025 127.71101563 -88.66602051 126.67203125 -88.04321289 125.6015625 C-84.40756837 119.3676055 -80.68674367 113.20479618 -76.8671875 107.08203125 C-74.20873468 102.69391561 -71.71033856 98.21995802 -69.23120117 93.72851562 C-66.63876543 89.05097716 -63.86837015 84.51295385 -61 80 C-56.00968971 72.11895518 -51.06360147 64.28519707 -46.69140625 56.0390625 C-44.41558411 51.94994096 -41.95771737 47.98170609 -39.5 44 C-36.59016846 39.28529362 -33.70665864 34.59265142 -31.125 29.6875 C-28.08631008 24.0111203 -24.77478925 18.50425794 -21.4375 13 C-20.60532959 11.59947388 -20.60532959 11.59947388 -19.75634766 10.1706543 C-19.21671387 9.28933838 -18.67708008 8.40802246 -18.12109375 7.5 C-17.40070923 6.30890625 -17.40070923 6.30890625 -16.66577148 5.09375 C-12.20242231 -0.51634564 -6.69478993 -0.96714461 0 0 Z " fill="#7E7E84" transform="translate(218,64)"/>
<path d="M0 0 C0.33 0 0.66 0 1 0 C0.52918711 12.00572875 -6.47699844 22.29543641 -13 32 C-13.70125 33.11375 -14.4025 34.2275 -15.125 35.375 C-17.18499432 38.25899204 -19.46427275 40.52157732 -22 43 C-22.47743652 43.46680176 -22.95487305 43.93360352 -23.44677734 44.41455078 C-45.01494296 65.32210787 -70.55056574 75.56807542 -100.56494141 75.42163086 C-121.52026109 74.94141139 -142.8195048 68.80101061 -159 55 C-160.32901064 53.99426222 -161.66073801 52.99204592 -163 52 C-162.44127099 48.64762596 -161.64153872 45.97528893 -160 43 C-159.67 42.34 -159.34 41.68 -159 41 C-157.68 41.66 -156.36 42.32 -155 43 C-155 42.34 -155 41.68 -155 41 C-156.78612311 39.19306244 -156.78612311 39.19306244 -159 37.375 C-159.7425 36.74335938 -160.485 36.11171875 -161.25 35.4609375 C-161.8275 34.97882813 -162.405 34.49671875 -163 34 C-162.67 33.34 -162.34 32.68 -162 32 C-161.39414063 32.56847656 -160.78828125 33.13695312 -160.1640625 33.72265625 C-139.9029694 52.39403281 -118.174474 60.84136325 -90.77929688 59.92578125 C-67.77979322 58.67086948 -47.58634559 47.51843773 -32 31 C-25.71895844 23.83271718 -21.07347677 16.61497003 -17 8 C-16.67 9.32 -16.34 10.64 -16 12 C-16.66 12 -17.32 12 -18 12 C-17.01 13.65 -16.02 15.3 -15 17 C-12.65941363 14.87219421 -11.29299694 12.88437779 -10 10 C-8 11 -8 11 -7 12 C-6.01 11.67 -5.02 11.34 -4 11 C-2.75049948 8.44598152 -2.75049948 8.44598152 -1.8125 5.4375 C-1.29623047 3.91962891 -1.29623047 3.91962891 -0.76953125 2.37109375 C-0.51558594 1.58863281 -0.26164063 0.80617188 0 0 Z " fill="#79797F" transform="translate(368,346)"/>
<path d="M0 0 C0.33 0 0.66 0 1 0 C0.52918711 12.00572875 -6.47699844 22.29543641 -13 32 C-13.70125 33.11375 -14.4025 34.2275 -15.125 35.375 C-17.18499432 38.25899204 -19.46427275 40.52157732 -22 43 C-22.47743652 43.46680176 -22.95487305 43.93360352 -23.44677734 44.41455078 C-33.82534496 54.4752346 -46.27160267 65.55394108 -61 68 C-60.34 66.35 -59.68 64.7 -59 63 C-58.2575 63.20625 -57.515 63.4125 -56.75 63.625 C-53.65256571 64.0473774 -52.54868779 63.72946672 -50 62 C-49.67 61.34 -49.34 60.68 -49 60 C-49.99 59.67 -50.98 59.34 -52 59 C-51.34 58.34 -50.68 57.68 -50 57 C-48.92924765 53.41945345 -48.92924765 53.41945345 -50 50 C-50.99 49.34 -51.98 48.68 -53 48 C-52.39414062 47.59910156 -51.78828125 47.19820313 -51.1640625 46.78515625 C-42.0804084 40.62224632 -33.76113169 33.69579286 -27 25 C-26.57203125 24.45988281 -26.1440625 23.91976563 -25.703125 23.36328125 C-22.10336294 18.59692963 -19.54684887 13.38631442 -17 8 C-16.505 9.98 -16.505 9.98 -16 12 C-16.66 12 -17.32 12 -18 12 C-17.01 13.65 -16.02 15.3 -15 17 C-12.65941363 14.87219421 -11.29299694 12.88437779 -10 10 C-8 11 -8 11 -7 12 C-6.01 11.67 -5.02 11.34 -4 11 C-2.75049948 8.44598152 -2.75049948 8.44598152 -1.8125 5.4375 C-1.46832031 4.42558594 -1.12414062 3.41367187 -0.76953125 2.37109375 C-0.38861328 1.19740234 -0.38861328 1.19740234 0 0 Z " fill="#7A7B81" transform="translate(368,346)"/>
<path d="M0 0 C3.58577814 2.61998116 7.13022659 5.2462874 10.48828125 8.15625 C28.04867148 23.34923948 47.39748242 27.82905659 70 28 C71.2478125 28.01546875 72.495625 28.0309375 73.78125 28.046875 C76.18933757 28.05928782 78.59256376 28.05074222 81 28 C81 28.33 81 28.66 81 29 C75.52955375 29.91540265 70.23042208 30.1919224 64.6875 30.1875 C63.42836792 30.1884668 63.42836792 30.1884668 62.14379883 30.18945312 C56.90932286 30.14480508 52.05404843 29.71287194 46.95703125 28.4453125 C44.2879588 27.83797865 41.72253859 27.8567085 39 28 C38.505 29.485 38.505 29.485 38 31 C34.4375 32.6875 34.4375 32.6875 31 34 C34.10378852 36.63822024 36.81462924 37.70365731 40.75 38.6875 C42.22726563 39.06455078 42.22726563 39.06455078 43.734375 39.44921875 C44.48203125 39.63097656 45.2296875 39.81273437 46 40 C38.68250775 42.73964082 28.29415971 36.97897649 21.4140625 34.1328125 C15.12028394 31.17942127 9.2902735 27.5122921 4 23 C2.67098936 21.99426222 1.33926199 20.99204592 0 20 C0.55872901 16.64762596 1.35846128 13.97528893 3 11 C3.33 10.34 3.66 9.68 4 9 C5.32 9.66 6.64 10.32 8 11 C8 10.34 8 9.68 8 9 C6.71323254 7.78216651 5.37036477 6.6229378 4 5.5 C2.62963523 4.3770622 1.28676746 3.21783349 0 2 C0 1.34 0 0.68 0 0 Z " fill="#8C8D92" transform="translate(205,378)"/>
<path d="M0 0 C8.83707865 10.87640449 8.83707865 10.87640449 11.4375 15.625 C13.71096063 19.08066016 16.78571905 21.43738149 20 24 C19.01 24.66 18.02 25.32 17 26 C16.01 25.01 15.02 24.02 14 23 C13.9175 23.721875 13.835 24.44375 13.75 25.1875 C12.85249799 28.55313254 11.2885722 30.41612816 9 33 C0.92428743 26.64252414 -5.57992715 18.71924762 -11 10 C-6.375 5.125 -6.375 5.125 -3 4 C-3 4.66 -3 5.32 -3 6 C-2.34 6 -1.68 6 -1 6 C-0.67 4.02 -0.34 2.04 0 0 Z " fill="#7C7C82" transform="translate(195,364)"/>
<path d="M0 0 C0.33 0 0.66 0 1 0 C0.52968692 11.99298365 -6.46374473 22.31431422 -13 32 C-13.43957031 32.66515625 -13.87914062 33.3303125 -14.33203125 34.015625 C-15.21361319 35.34890087 -16.1051364 36.67560187 -17 38 C-17.66 37.67 -18.32 37.34 -19 37 C-19.40729228 34.67843403 -19.74438677 32.3431213 -20 30 C-20.66 30.33 -21.32 30.66 -22 31 C-22.33 29.68 -22.66 28.36 -23 27 C-24.32 27 -25.64 27 -27 27 C-25.44604245 22.72661674 -23.29563727 18.90588644 -21 15 C-20.24834861 13.68844503 -19.4982848 12.37597863 -18.75 11.0625 C-18.1725 10.051875 -17.595 9.04125 -17 8 C-16.67 9.32 -16.34 10.64 -16 12 C-16.66 12 -17.32 12 -18 12 C-17.01 13.65 -16.02 15.3 -15 17 C-12.65941363 14.87219421 -11.29299694 12.88437779 -10 10 C-8 11 -8 11 -7 12 C-6.01 11.67 -5.02 11.34 -4 11 C-2.75049948 8.44598152 -2.75049948 8.44598152 -1.8125 5.4375 C-1.46832031 4.42558594 -1.12414062 3.41367187 -0.76953125 2.37109375 C-0.38861328 1.19740234 -0.38861328 1.19740234 0 0 Z " fill="#8C8C91" transform="translate(368,346)"/>
<path d="M0 0 C0.93764765 3.31977952 1.72335776 6.55553291 2 10 C0.12907276 12.91864649 -1.71313448 13.83321772 -4.6875 15.5625 C-7.30410442 16.84772096 -7.30410442 16.84772096 -8 20 C-8.66 20 -9.32 20 -10 20 C-10.33 18.68 -10.66 17.36 -11 16 C-11.66 16 -12.32 16 -13 16 C-13 15.34 -13 14.68 -13 14 C-13.33 13.67 -13.66 13.34 -14 13 C-14.75 11.125 -14.75 11.125 -15 9 C-13.75 7.25 -13.75 7.25 -12 6 C-11.01 6 -10.02 6 -9 6 C-8.7525 5.030625 -8.505 4.06125 -8.25 3.0625 C-7 0 -7 0 -5.0625 -0.9375 C-3 -1 -3 -1 0 0 Z " fill="#707177" transform="translate(348,373)"/>
<path d="M0 0 C1 2 1 2 0.8125 5.75 C0.75601055 10.18845648 2.08154509 12.59513594 5 16 C8.7025154 18.58927448 12.72654901 18.30652089 17.07324219 18.31884766 C18.28843788 18.33391609 18.28843788 18.33391609 19.52818298 18.34928894 C22.20107323 18.38013466 24.87386324 18.3971599 27.546875 18.4140625 C29.40204735 18.43277303 31.25721119 18.45234636 33.11236572 18.4727478 C37.99162779 18.52408711 42.87091746 18.56370324 47.75030518 18.60089111 C52.73074175 18.64091945 57.71106334 18.69201714 62.69140625 18.7421875 C72.46085675 18.83896811 82.23037215 18.92336611 92 19 C91.85866501 20.77119803 91.71176792 22.54195287 91.5625 24.3125 C91.44068359 25.79169922 91.44068359 25.79169922 91.31640625 27.30078125 C91 30 91 30 90 33 C89.91602843 35.35680213 89.89271813 37.71594081 89.90234375 40.07421875 C89.9037587 40.7580513 89.90517365 41.44188385 89.90663147 42.1464386 C89.91222124 44.32683722 89.92477178 46.50713251 89.9375 48.6875 C89.94251633 50.16731622 89.947079 51.64713406 89.95117188 53.12695312 C89.96218729 56.75133557 89.97944488 60.3756577 90 64 C89.67 64 89.34 64 89 64 C88.22974929 59.90168492 87.87172494 56.02733356 87.8671875 51.859375 C87.86589844 50.70566406 87.86460937 49.55195313 87.86328125 48.36328125 C87.86714844 47.17089844 87.87101562 45.97851562 87.875 44.75 C87.87113281 43.57308594 87.86726563 42.39617187 87.86328125 41.18359375 C87.86457031 40.02472656 87.86585938 38.86585938 87.8671875 37.671875 C87.86831543 36.6312793 87.86944336 35.59068359 87.87060547 34.51855469 C88.03724633 29.98718095 88.5060656 25.50589282 89 21 C87.98824203 21.00079559 86.97648407 21.00159119 85.93406677 21.00241089 C76.38523063 21.00601788 66.83693195 20.97815692 57.28826809 20.9197216 C52.37946876 20.89068602 47.47114634 20.87262371 42.56225586 20.87988281 C37.82214682 20.88648454 33.08297946 20.86394329 28.34306526 20.82144547 C26.53746964 20.81032922 24.73177835 20.80960075 22.92617607 20.81957626 C20.39042203 20.8317867 17.85752582 20.80660459 15.32202148 20.77294922 C14.58042786 20.78517014 13.83883423 20.79739105 13.07476807 20.8099823 C7.86007976 20.68578284 5.16256167 19.07900203 1.33633518 15.57829475 C-1.19533149 12.58823936 -1.13590845 9.61659962 -1.125 5.875 C-1.12757812 4.98554688 -1.13015625 4.09609375 -1.1328125 3.1796875 C-1 1 -1 1 0 0 Z " fill="#D8D8DA" transform="translate(80,274)"/>
<path d="M0 0 C0.495 1.485 0.495 1.485 1 3 C-0.75439163 4.75439163 -3.05497456 4.11982963 -5.39170837 4.12442017 C-6.1642244 4.12082489 -6.93674042 4.11722961 -7.73266602 4.11352539 C-8.94720459 4.11374443 -8.94720459 4.11374443 -10.1862793 4.1139679 C-12.87551508 4.11326854 -15.56468249 4.1054751 -18.25390625 4.09765625 C-20.11335716 4.09579215 -21.97280856 4.09436821 -23.83226013 4.09336853 C-28.73629096 4.08954271 -33.64029236 4.07971188 -38.54431152 4.06866455 C-43.54451092 4.05845181 -48.54471506 4.05387121 -53.54492188 4.04882812 C-63.36329421 4.03808967 -73.18164466 4.02101248 -83 4 C-83 3.01 -83 2.02 -83 1 C-41.915 1.495 -41.915 1.495 0 2 C0 1.34 0 0.68 0 0 Z " fill="#E1E0E3" transform="translate(176,277)"/>
<path d="M0 0 C1.9375 0.8125 1.9375 0.8125 4 2 C4.33 2.99 4.66 3.98 5 5 C8.52661087 6.17553696 11.73747867 6.1755277 15.40893555 6.20532227 C16.53613007 6.22017166 16.53613007 6.22017166 17.68609619 6.23532104 C20.16960501 6.26690496 22.65313296 6.29168116 25.13671875 6.31640625 C26.85879513 6.33697846 28.5808665 6.35797501 30.30293274 6.37937927 C34.83533666 6.43457234 39.36778594 6.48399382 43.90026855 6.53222656 C48.52535031 6.58246176 53.1503662 6.63813729 57.77539062 6.69335938 C66.85020414 6.80090713 75.92507486 6.90235964 85 7 C85.495 9.475 85.495 9.475 86 12 C85.01 10.515 85.01 10.515 84 9 C81.48837412 8.7099471 79.22104092 8.61421619 76.70800781 8.64697266 C75.95657501 8.64481247 75.20514221 8.64265228 74.43093872 8.64042664 C72.79617516 8.63733455 71.16138848 8.64096058 69.52664948 8.65044022 C66.93700447 8.66414783 64.34812857 8.6577589 61.75848389 8.64559937 C54.39492848 8.61459809 47.03154887 8.61947822 39.66796875 8.63964844 C35.16562178 8.6505806 30.66385009 8.6373407 26.16158295 8.60975266 C24.4472362 8.60431778 22.73283171 8.60836156 21.0185318 8.62215042 C18.61491025 8.64125056 16.2131608 8.62976889 13.80957031 8.61181641 C13.10492645 8.62515518 12.40028259 8.63849396 11.67428589 8.65223694 C7.88367222 8.58949372 5.45600437 7.94270276 2.51190186 5.64926147 C0 3 0 3 0 0 Z " fill="#D3D3D6" transform="translate(271,286)"/>
<path d="M0 0 C9.24 0 18.48 0 28 0 C27 11 27 11 26 14 C25.91602843 16.35680213 25.89271813 18.71594081 25.90234375 21.07421875 C25.90446617 22.09996758 25.90446617 22.09996758 25.90663147 23.1464386 C25.91222124 25.32683722 25.92477178 27.50713251 25.9375 29.6875 C25.94251633 31.16731622 25.947079 32.64713406 25.95117188 34.12695312 C25.96218729 37.75133557 25.97944488 41.3756577 26 45 C25.67 45 25.34 45 25 45 C24.22974929 40.90168492 23.87172494 37.02733356 23.8671875 32.859375 C23.86589844 31.70566406 23.86460937 30.55195313 23.86328125 29.36328125 C23.86714844 28.17089844 23.87101562 26.97851562 23.875 25.75 C23.86919922 23.98462891 23.86919922 23.98462891 23.86328125 22.18359375 C23.86457031 21.02472656 23.86585938 19.86585938 23.8671875 18.671875 C23.86831543 17.6312793 23.86944336 16.59068359 23.87060547 15.51855469 C24.03678499 10.99972603 24.5500558 6.499442 25 2 C16.75 1.67 8.5 1.34 0 1 C0 0.67 0 0.34 0 0 Z " fill="#E2E3E4" transform="translate(144,293)"/>
<path d="M0 0 C1 2 1 2 0.375 3.9375 C-1 6 -1 6 -3.26171875 7.3359375 C-7.25031565 9.75982092 -10.40366267 12.95066941 -13.79296875 16.13671875 C-16 18 -16 18 -18 18 C-18.99 20.475 -18.99 20.475 -20 23 C-21.65 22.67 -23.3 22.34 -25 22 C-22.45865115 19.9632511 -19.91378119 17.93234748 -17.3515625 15.921875 C-12.16921601 11.79381676 -7.52011018 7.68248296 -3.33984375 2.53125 C-2 1 -2 1 0 0 Z " fill="#CBCCCE" transform="translate(340,373)"/>
<path d="M0 0 C2.1875 0.3125 2.1875 0.3125 4 1 C3.01 1.495 3.01 1.495 2 2 C1.67 2.66 1.34 3.32 1 4 C0.34 4 -0.32 4 -1 4 C-1 5.98 -1 7.96 -1 10 C0.32 10 1.64 10 3 10 C2.67 10.99 2.34 11.98 2 13 C1.21625 12.979375 0.4325 12.95875 -0.375 12.9375 C-2.98114961 12.81315937 -2.98114961 12.81315937 -5 14 C-5.66 13.34 -6.32 12.68 -7 12 C-6.40477663 10.55877387 -5.79842381 9.12214132 -5.1875 7.6875 C-4.85105469 6.88699219 -4.51460937 6.08648437 -4.16796875 5.26171875 C-3.00340147 3.0065868 -1.98517292 1.57159522 0 0 Z M-8 13 C-8 16 -8 16 -8 16 Z " fill="#6F6F75" transform="translate(147,166)"/>
<path d="M0 0 C0.99 0 1.98 0 3 0 C3 0.66 3 1.32 3 2 C3.66 2 4.32 2 5 2 C6.19725883 4.28703308 7.38297018 6.57884862 8.5625 8.875 C9.07586914 9.85146484 9.07586914 9.85146484 9.59960938 10.84765625 C10.46082891 12.53529857 11.23686703 14.26579593 12 16 C11.67 16.66 11.34 17.32 11 18 C10.68546875 17.49210937 10.3709375 16.98421875 10.046875 16.4609375 C5.99753751 9.36793494 5.99753751 9.36793494 1 3 C-1.64 7.29 -4.28 11.58 -7 16 C-7.33 15.34 -7.66 14.68 -8 14 C-6.75717988 11.54961707 -5.47117661 9.226675 -4.0625 6.875 C-3.48338867 5.88693359 -3.48338867 5.88693359 -2.89257812 4.87890625 C-1.93553422 3.248387 -0.96867185 1.62363816 0 0 Z " fill="#DADBDC" transform="translate(212,78)"/>
<path d="M0 0 C0.33 0 0.66 0 1 0 C1.25 2.25 1.25 2.25 1 5 C0.38125 5.598125 -0.2375 6.19625 -0.875 6.8125 C-3.18267105 9.18804372 -3.35724254 9.99837 -3.9375 13.125 C-4.37109375 15.24609375 -4.37109375 15.24609375 -5 17 C-7.5 18.1875 -7.5 18.1875 -10 19 C-11.36078035 21.52372901 -11.36078035 21.52372901 -12 24 C-12.33 23.34 -12.66 22.68 -13 22 C-11.67527085 19.5269729 -10.30325677 17.18259716 -8.8125 14.8125 C-8.00579021 13.50695517 -7.19979701 12.20096727 -6.39453125 10.89453125 C-5.9970166 10.25338379 -5.59950195 9.61223633 -5.18994141 8.95166016 C-3.39312664 6.00464801 -1.69599241 3.00600034 0 0 Z " fill="#C4C4C6" transform="translate(147,161)"/>
<path d="M0 0 C1.32 0.99 2.64 1.98 4 3 C4.33 2.34 4.66 1.68 5 1 C7.98514628 5.10457614 8.2954439 7.97745369 8 13 C8.99 12.67 9.98 12.34 11 12 C11.33 14.64 11.66 17.28 12 20 C8.35681022 16.89654204 6.38772401 13.34563641 4.171875 9.1875 C3.23835487 7.44492908 2.22556869 5.74488718 1.1875 4.0625 C0 2 0 2 0 0 Z M6 6 C7 8 7 8 7 8 Z " fill="#AFAEB1" transform="translate(228,103)"/>
<path d="M0 0 C0 0.66 0 1.32 0 2 C0.99 2 1.98 2 3 2 C3 3.65 3 5.3 3 7 C-5.57142857 5.14285714 -5.57142857 5.14285714 -9 2 C-5.86501708 0.14223235 -3.62528568 -0.20140476 0 0 Z " fill="#707176" transform="translate(243,410)"/>
<path d="M0 0 C1.32 0.33 2.64 0.66 4 1 C4 2.32 4 3.64 4 5 C5.98 4.67 7.96 4.34 10 4 C10 6.31 10 8.62 10 11 C9.34 11 8.68 11 8 11 C7.67 11.66 7.34 12.32 7 13 C5.82786955 11.21190303 4.66244474 9.41940875 3.5 7.625 C2.8503125 6.62726563 2.200625 5.62953125 1.53125 4.6015625 C0 2 0 2 0 0 Z " fill="#7D7D83" transform="translate(243,128)"/>
<path d="M0 0 C1.27351308 2.54702616 0.80191925 3.4282945 0.0625 6.125 C-0.13214844 6.84945312 -0.32679688 7.57390625 -0.52734375 8.3203125 C-0.76130859 9.15175781 -0.76130859 9.15175781 -1 10 C-1.99 10 -2.98 10 -4 10 C-5.5625 7.1875 -5.5625 7.1875 -7 4 C-6.67 3.01 -6.34 2.02 -6 1 C-4.7934375 1.0309375 -4.7934375 1.0309375 -3.5625 1.0625 C-1.06645115 1.29633621 -1.06645115 1.29633621 0 0 Z " fill="#707178" transform="translate(224,79)"/>
<path d="M0 0 C0.5775 0.2475 1.155 0.495 1.75 0.75 C0.986875 1.1625 0.22375 1.575 -0.5625 2 C-3.32633996 3.79970974 -4.56377508 4.95239956 -6.25 7.75 C-6.82437061 10.78883681 -6.82437061 10.78883681 -6.9375 14 C-7.00324219 15.07765625 -7.06898438 16.1553125 -7.13671875 17.265625 C-7.17410156 18.08546875 -7.21148437 18.9053125 -7.25 19.75 C-7.91 19.75 -8.57 19.75 -9.25 19.75 C-9.25 18.76 -9.25 17.77 -9.25 16.75 C-9.91 16.75 -10.57 16.75 -11.25 16.75 C-10.02662331 11.31277025 -6.98868577 -0.77652064 0 0 Z " fill="#DEDEE1" transform="translate(278.25,128.25)"/>
<path d="M0 0 C0.66 0.33 1.32 0.66 2 1 C1.03108808 6.4611399 1.03108808 6.4611399 0 9 C-2.625 10.5 -2.625 10.5 -5 11 C-5.33 10.01 -5.66 9.02 -6 8 C-4.78515625 5.95703125 -4.78515625 5.95703125 -3.0625 3.8125 C-2.49660156 3.09707031 -1.93070313 2.38164062 -1.34765625 1.64453125 C-0.90292969 1.10183594 -0.45820313 0.55914062 0 0 Z " fill="#99999D" transform="translate(189,256)"/>
<path d="M0 0 C1.9375 0.8125 1.9375 0.8125 4 2 C4.33 2.99 4.66 3.98 5 5 C7.85506049 5.95168683 9.90937282 6.1900946 12.88671875 6.31640625 C13.82451172 6.35830078 14.76230469 6.40019531 15.72851562 6.44335938 C16.70498047 6.48267578 17.68144531 6.52199219 18.6875 6.5625 C19.67556641 6.60568359 20.66363281 6.64886719 21.68164062 6.69335938 C24.12095546 6.79941654 26.56037113 6.90147714 29 7 C29 7.33 29 7.66 29 8 C25.29208456 8.14592789 21.58491274 8.23427895 17.875 8.3125 C16.30492187 8.3753418 16.30492187 8.3753418 14.703125 8.43945312 C5.96936863 8.57764547 5.96936863 8.57764547 2.2578125 5.66796875 C0 3 0 3 0 0 Z " fill="#CACACD" transform="translate(271,286)"/>
<path d="M0 0 C3.29078593 2.79716804 5.06305458 6.19528578 7 10 C6.67 10.66 6.34 11.32 6 12 C4.1875 11.875 4.1875 11.875 2 11 C-0.10234659 7.81023276 -1.10492845 5.96534169 -0.6875 2.125 C-0.460625 1.42375 -0.23375 0.7225 0 0 Z " fill="#A8A8AA" transform="translate(255,121)"/>
<path d="M0 0 C1.44571275 2.8914255 0.61370836 4.87008736 0 8 C-0.185625 8.94875 -0.37125 9.8975 -0.5625 10.875 C-0.706875 11.57625 -0.85125 12.2775 -1 13 C-2.65 12.67 -4.3 12.34 -6 12 C-6.33 12.66 -6.66 13.32 -7 14 C-6.34097701 10.42959697 -4.83770842 7.82267745 -2.9375 4.75 C-2.38964844 3.85796875 -1.84179688 2.9659375 -1.27734375 2.046875 C-0.64505859 1.03367187 -0.64505859 1.03367187 0 0 Z " fill="#B1B2B5" transform="translate(175,114)"/>
<path d="M0 0 C3.48331435 3.01887244 4.79157144 5.56909529 6 10 C4.35 10.33 2.7 10.66 1 11 C0.30710631 7.27569643 -0.11144596 3.78916254 0 0 Z " fill="#A4A3A8" transform="translate(235,88)"/>
<path d="M0 0 C1.29567565 2.5913513 1.34250494 4.12295849 1 7 C-1.2477854 9.79035429 -2.57730016 10.85910005 -6 12 C-4.43358249 7.69235185 -2.31663844 3.93828536 0 0 Z " fill="#B7B8B9" transform="translate(188,92)"/>
<path d="M0 0 C5.21489921 0.53213257 9.23177016 1.87132597 14 4 C16.31913662 4.74430216 18.64456777 5.37508941 21 6 C17.09555054 7.50244746 14.37994811 6.44670334 10.5 5.1875 C8.81390625 4.65189453 8.81390625 4.65189453 7.09375 4.10546875 C4.59723779 3.21340694 2.32520219 2.25948452 0 1 C0 0.67 0 0.34 0 0 Z " fill="#D1D1D4" transform="translate(230,412)"/>
<path d="M0 0 C0.66 0.33 1.32 0.66 2 1 C1.21625 1.2475 0.4325 1.495 -0.375 1.75 C-3.32317108 3.15389099 -3.9024777 4.00675737 -5 7 C-7.64 7 -10.28 7 -13 7 C-10.35787411 5.23858274 -7.7572236 3.76181302 -4.9375 2.3125 C-3.62072266 1.62607422 -3.62072266 1.62607422 -2.27734375 0.92578125 C-1.52582031 0.62027344 -0.77429688 0.31476563 0 0 Z " fill="#D5D5D7" transform="translate(313,395)"/>
<path d="M0 0 C0 3 0 3 -1.3125 4.60546875 C-1.869375 5.12753906 -2.42625 5.64960938 -3 6.1875 C-3.556875 6.71730469 -4.11375 7.24710937 -4.6875 7.79296875 C-5.120625 8.19128906 -5.55375 8.58960938 -6 9 C-6.66 8.67 -7.32 8.34 -8 8 C-4 1.42857143 -4 1.42857143 0 0 Z " fill="#B3B4B7" transform="translate(346,386)"/>
<path d="M0 0 C1.1484375 1.734375 1.1484375 1.734375 2 4 C1.1015625 6.140625 1.1015625 6.140625 -0.375 8.25 C-0.85710937 8.95640625 -1.33921875 9.6628125 -1.8359375 10.390625 C-2.22007812 10.92171875 -2.60421875 11.4528125 -3 12 C-3.33 11.34 -3.66 10.68 -4 10 C-3.34 9.01 -2.68 8.02 -2 7 C-2.3121764 4.35367713 -2.3121764 4.35367713 -3 2 C-2.01 1.34 -1.02 0.68 0 0 Z " fill="#AFAEB1" transform="translate(172,142)"/>
<path d="M0 0 C0.66 0.33 1.32 0.66 2 1 C-6.261959 5.40774487 -6.261959 5.40774487 -11 6 C-10.34 4.35 -9.68 2.7 -9 1 C-8.2575 1.20625 -7.515 1.4125 -6.75 1.625 C-3.62463243 2.05118649 -2.67770324 1.47735351 0 0 Z " fill="#B6B7B9" transform="translate(318,408)"/>
<path d="M0 0 C0.99 0 1.98 0 3 0 C1.50163895 3.11198065 -0.19933758 6.0534615 -2 9 C-2.66 8.67 -3.32 8.34 -4 8 C-4 6.02 -4 4.04 -4 2 C-2.68 2.33 -1.36 2.66 0 3 C0 2.01 0 1.02 0 0 Z " fill="#ACADB1" transform="translate(353,375)"/>
<path d="M0 0 C2.5 2.3125 2.5 2.3125 5 5 C5 5.99 5 6.98 5 8 C3.68 7.67 2.36 7.34 1 7 C0.67 4.69 0.34 2.38 0 0 Z " fill="#B1B1B3" transform="translate(197,368)"/>
<path d="M0 0 C1.65 0 3.3 0 5 0 C3.8141763 3.37503669 2.72426311 5.64722731 0 8 C-0.33 7.01 -0.66 6.02 -1 5 C-0.34 5 0.32 5 1 5 C0.67 3.35 0.34 1.7 0 0 Z " fill="#A7A7A9" transform="translate(124,220)"/>
<path d="M0 0 C0.99 0.33 1.98 0.66 3 1 C3 1.66 3 2.32 3 3 C2.21625 3.226875 1.4325 3.45375 0.625 3.6875 C-2.21875 4.78125 -2.21875 4.78125 -3.3125 7.625 C-3.539375 8.40875 -3.76625 9.1925 -4 10 C-4.33 9.34 -4.66 8.68 -5 8 C-4.00390625 6.0546875 -4.00390625 6.0546875 -2.5625 3.875 C-2.08941406 3.15054688 -1.61632812 2.42609375 -1.12890625 1.6796875 C-0.75636719 1.12539062 -0.38382813 0.57109375 0 0 Z " fill="#B9BABB" transform="translate(139,175)"/>
<path d="M0 0 C0 3.11227195 -0.45627049 5.94152152 -1 9 C-2.32 9.33 -3.64 9.66 -5 10 C-4.38545304 6.00544473 -2.29353263 3.25533664 0 0 Z " fill="#BFBFC1" transform="translate(94,251)"/>
<path d="M0 0 C0.99 0.33 1.98 0.66 3 1 C2.67 1.99 2.34 2.98 2 4 C-1.0625 5.1875 -1.0625 5.1875 -4 6 C-2.25 1.125 -2.25 1.125 0 0 Z " fill="#A5A5A8" transform="translate(194,250)"/>
<path d="M0 0 C0 4.24645065 -1.81750806 6.38524772 -4 10 C-5.125 6.25 -5.125 6.25 -4 4 C-3.34 4 -2.68 4 -2 4 C-2.33 3.01 -2.66 2.02 -3 1 C-2.01 0.67 -1.02 0.34 0 0 Z M-5 2 C-3 3 -3 3 -3 3 Z " fill="#ADAEB0" transform="translate(119,235)"/>
<path d="M0 0 C1.125 3.75 1.125 3.75 0 6 C-0.66 6 -1.32 6 -2 6 C-2.33 7.32 -2.66 8.64 -3 10 C-3.66 10 -4.32 10 -5 10 C-3.84414715 6.08788267 -2.64465038 3.1254959 0 0 Z " fill="#BFBFC1" transform="translate(167,128)"/>
<path d="M0 0 C0.99 0.495 0.99 0.495 2 1 C2 1.66 2 2.32 2 3 C2.99 2.67 3.98 2.34 5 2 C5.33 4.64 5.66 7.28 6 10 C2.51668565 6.98112756 1.20842856 4.43090471 0 0 Z " fill="#CACACD" transform="translate(234,113)"/>
<path d="M0 0 C4 4.625 4 4.625 4 8 C2.68 7.34 1.36 6.68 0 6 C0 4.02 0 2.04 0 0 Z " fill="#B4B5B8" transform="translate(262,133)"/>
<path d="M0 0 C1.32 0.33 2.64 0.66 4 1 C4.66 3.97 5.32 6.94 6 10 C3.36335259 7.36335259 1.744776 5.24029829 0 2 C0 1.34 0 0.68 0 0 Z " fill="#C0BFC3" transform="translate(243,128)"/>
<path d="M0 0 C2.61500768 2.36595933 4.38999603 4.86049226 6 8 C5.67 8.66 5.34 9.32 5 10 C4.67 9.01 4.34 8.02 4 7 C3.34 7 2.68 7 2 7 C0 4 0 4 0 0 Z " fill="#D1D1D3" transform="translate(227,74)"/>
<path d="M0 0 C1.485 0.99 1.485 0.99 3 2 C1.25 6.875 1.25 6.875 -1 8 C-1.04241723 5.66705225 -1.04092937 3.33297433 -1 1 C-0.67 0.67 -0.34 0.34 0 0 Z " fill="#A5A4A9" transform="translate(103,257)"/>
<path d="M0 0 C0.33 1.32 0.66 2.64 1 4 C0.01 4.33 -0.98 4.66 -2 5 C-3.21869929 7.50447516 -3.21869929 7.50447516 -4 10 C-4.33 9.34 -4.66 8.68 -5 8 C-4.00390625 6.0546875 -4.00390625 6.0546875 -2.5625 3.875 C-2.08941406 3.15054688 -1.61632812 2.42609375 -1.12890625 1.6796875 C-0.75636719 1.12539062 -0.38382813 0.57109375 0 0 Z " fill="#DBDBDD" transform="translate(194,82)"/>
<path d="M0 0 C0.625 1.8125 0.625 1.8125 1 4 C0.01 5.485 0.01 5.485 -1 7 C-1.66 7 -2.32 7 -3 7 C-3.33 7.66 -3.66 8.32 -4 9 C-3.35455571 5.51460083 -1.89865603 2.97180943 0 0 Z " fill="#C8C7CA" transform="translate(127,195)"/>
<path d="" fill="#FFFFFF" transform="translate(0,0)"/>
<path d="" fill="#FFFFFF" transform="translate(0,0)"/>
<path d="" fill="#FFFFFF" transform="translate(0,0)"/>
<path d="" fill="#FFFFFF" transform="translate(0,0)"/>
<path d="" fill="#FFFFFF" transform="translate(0,0)"/>
<path d="" fill="#FFFFFF" transform="translate(0,0)"/>
<path d="" fill="#FFFFFF" transform="translate(0,0)"/>
<path d="" fill="#FFFFFF" transform="translate(0,0)"/>
<path d="" fill="#FFFFFF" transform="translate(0,0)"/>
<path d="" fill="#FFFFFF" transform="translate(0,0)"/>
<path d="" fill="#FFFFFF" transform="translate(0,0)"/>
<path d="" fill="#FFFFFF" transform="translate(0,0)"/>
<path d="" fill="#FFFFFF" transform="translate(0,0)"/>
<path d="" fill="#FFFFFF" transform="translate(0,0)"/>
<path d="" fill="#FFFFFF" transform="translate(0,0)"/>
<path d="" fill="#FFFFFF" transform="translate(0,0)"/>
<path d="" fill="#FFFFFF" transform="translate(0,0)"/>
<path d="" fill="#FFFFFF" transform="translate(0,0)"/>
<path d="" fill="#FFFFFF" transform="translate(0,0)"/>
<path d="" fill="#FFFFFF" transform="translate(0,0)"/>
<path d="" fill="#FFFFFF" transform="translate(0,0)"/>
<path d="" fill="#FFFFFF" transform="translate(0,0)"/>
<path d="" fill="#FFFFFF" transform="translate(0,0)"/>
<path d="" fill="#FFFFFF" transform="translate(0,0)"/>
<path d="" fill="#FFFFFF" transform="translate(0,0)"/>
<path d="" fill="#FFFFFF" transform="translate(0,0)"/>
<path d="" fill="#FFFFFF" transform="translate(0,0)"/>
<path d="" fill="#FFFFFF" transform="translate(0,0)"/>
<path d="" fill="#FFFFFF" transform="translate(0,0)"/>
<path d="" fill="#FFFFFF" transform="translate(0,0)"/>
<path d="" fill="#FFFFFF" transform="translate(0,0)"/>
<path d="" fill="#FFFFFF" transform="translate(0,0)"/>
<path d="" fill="#FFFFFF" transform="translate(0,0)"/>
<path d="" fill="#FFFFFF" transform="translate(0,0)"/>
<path d="" fill="#FFFFFF" transform="translate(0,0)"/>
<path d="" fill="#FFFFFF" transform="translate(0,0)"/>
<path d="" fill="#FFFFFF" transform="translate(0,0)"/>
<path d="" fill="#FFFFFF" transform="translate(0,0)"/>
<path d="" fill="#FFFFFF" transform="translate(0,0)"/>
<path d="" fill="#FFFFFF" transform="translate(0,0)"/>
<path d="" fill="#FFFFFF" transform="translate(0,0)"/>
<path d="" fill="#FFFFFF" transform="translate(0,0)"/>
<path d="" fill="#FFFFFF" transform="translate(0,0)"/>
<path d="" fill="#FFFFFF" transform="translate(0,0)"/>
<path d="" fill="#FFFFFF" transform="translate(0,0)"/>
<path d="" fill="#FFFFFF" transform="translate(0,0)"/>
<path d="" fill="#FFFFFF" transform="translate(0,0)"/>
<path d="" fill="#FFFFFF" transform="translate(0,0)"/>
<path d="" fill="#FFFFFF" transform="translate(0,0)"/>
<path d="" fill="#FFFFFF" transform="translate(0,0)"/>
<path d="" fill="#FFFFFF" transform="translate(0,0)"/>
<path d="" fill="#FFFFFF" transform="translate(0,0)"/>
<path d="" fill="#FFFFFF" transform="translate(0,0)"/>
<path d="" fill="#FFFFFF" transform="translate(0,0)"/>
<path d="" fill="#FFFFFF" transform="translate(0,0)"/>
<path d="" fill="#FFFFFF" transform="translate(0,0)"/>
<path d="" fill="#FFFFFF" transform="translate(0,0)"/>
<path d="" fill="#FFFFFF" transform="translate(0,0)"/>
<path d="" fill="#FFFFFF" transform="translate(0,0)"/>
<path d="" fill="#FFFFFF" transform="translate(0,0)"/>
<path d="" fill="#FFFFFF" transform="translate(0,0)"/>
<path d="" fill="#FFFFFF" transform="translate(0,0)"/>
<path d="" fill="#FFFFFF" transform="translate(0,0)"/>
<path d="" fill="#FFFFFF" transform="translate(0,0)"/>
<path d="" fill="#FFFFFF" transform="translate(0,0)"/>
<path d="" fill="#FFFFFF" transform="translate(0,0)"/>
<path d="" fill="#FFFFFF" transform="translate(0,0)"/>
<path d="" fill="#FFFFFF" transform="translate(0,0)"/>
<path d="" fill="#FFFFFF" transform="translate(0,0)"/>
<path d="" fill="#FFFFFF" transform="translate(0,0)"/>
<path d="" fill="#FFFFFF" transform="translate(0,0)"/>
<path d="" fill="#FFFFFF" transform="translate(0,0)"/>
<path d="" fill="#FFFFFF" transform="translate(0,0)"/>
<path d="" fill="#FFFFFF" transform="translate(0,0)"/>
<path d="" fill="#FFFFFF" transform="translate(0,0)"/>
<path d="" fill="#FFFFFF" transform="translate(0,0)"/>
<path d="" fill="#FFFFFF" transform="translate(0,0)"/>
<path d="" fill="#FFFFFF" transform="translate(0,0)"/>
</svg>
