<?xml version="1.0" encoding="UTF-8"?>
<svg version="1.1" xmlns="http://www.w3.org/2000/svg" width="511" height="488">
<path d="M0 0 C2.11814202 2.47116569 3.53304193 5.10153905 5 8 C5.58136719 9.11117187 6.16273438 10.22234375 6.76171875 11.3671875 C10.77204894 19.14003546 14.40576449 27.06279272 17.95361328 35.0546875 C22.03472889 44.18725389 26.33263137 53.21545527 30.625 62.25 C32.20447314 65.57549896 33.78390865 68.90101579 35.36328125 72.2265625 C35.75500015 73.05126038 36.14671906 73.87595825 36.55030823 74.72564697 C40.32728226 82.68137469 44.076496 90.64996211 47.8125 98.625 C48.12023346 99.28171692 48.42796692 99.93843384 48.74502563 100.61505127 C53.47902625 110.72066608 58.17508789 120.84359898 62.86083984 130.97167969 C66.07342264 137.89878071 69.32384442 144.80665027 72.6015625 151.703125 C73.00100571 152.54398651 73.40044891 153.38484802 73.81199646 154.25119019 C75.78196456 158.39671669 77.75524501 162.54061878 79.73364258 166.68212891 C94.44039515 197.5364322 94.44039515 197.5364322 92.43359375 205.1484375 C90.12238299 210.724363 86.34316216 213.44362057 81 216 C75.54870476 217.81709841 70.1245455 217.81891217 64.8125 215.5 C57.61429352 211.29272487 53.9643252 203.53618434 50.625 196.1875 C50.24996338 195.37869385 49.87492676 194.5698877 49.48852539 193.73657227 C46.70526151 187.68039082 44.04326313 181.57192521 41.4375 175.4375 C41.09090332 174.62240967 40.74430664 173.80731934 40.38720703 172.9675293 C38 167.25008901 38 167.25008901 38 165 C24.69136646 164.97681817 11.38273773 164.95905509 -1.9259119 164.94818783 C-8.10580725 164.9429718 -14.28568878 164.93589735 -20.46557617 164.92456055 C-26.43075636 164.91368624 -32.39592326 164.90771351 -38.36111259 164.90512276 C-40.63564704 164.90327671 -42.91018077 164.89967186 -45.18470955 164.89426994 C-48.37323701 164.88699926 -51.56170971 164.88601161 -54.75024414 164.88647461 C-55.68820328 164.88287933 -56.62616241 164.87928406 -57.59254456 164.87557983 C-62.48839718 164.8832602 -67.20437117 164.9558745 -72 166 C-73.97055381 168.49781096 -73.97055381 168.49781096 -75.1875 171.9375 C-75.76153873 173.29099412 -76.33719486 174.6438029 -76.9140625 175.99609375 C-77.23407227 176.77065918 -77.55408203 177.54522461 -77.88378906 178.34326172 C-80.16702989 183.7776945 -82.6231061 189.13438439 -85.0625 194.5 C-85.55709717 195.62140381 -86.05169434 196.74280762 -86.5612793 197.89819336 C-89.94006289 205.36711287 -93.1069244 211.76508623 -100.375 215.9375 C-107.35563975 217.98354958 -112.43511794 217.51069424 -118.8828125 214.3203125 C-123.10156991 211.68942688 -126.13921874 208.66015452 -127.69140625 203.86328125 C-129.36499493 193.768899 -123.39083105 184.15389 -119.25 175.3125 C-118.71286377 174.15637207 -118.17572754 173.00024414 -117.62231445 171.80908203 C-114.39226217 164.88510512 -111.05610742 158.03492452 -107.58203125 151.23046875 C-105.39290251 146.76032192 -103.44858337 142.19469912 -101.48974609 137.62011719 C-99.6286757 133.31527031 -97.56085744 129.25435898 -95.19165039 125.21313477 C-93.98604246 122.97407804 -93.06233789 120.74984277 -92.15625 118.375 C-90.07442816 113.0819037 -87.67464581 107.98749314 -85.1875 102.875 C-82.10784323 96.48548989 -79.10749299 90.0817304 -76.3125 83.5625 C-73.75922601 77.62078954 -70.95092072 71.85856502 -68.015625 66.09375 C-65.36698405 60.7964681 -62.95017516 55.39104845 -60.5 50 C-57.02181838 42.3470591 -53.44230542 34.79020534 -49.6171875 27.3046875 C-47.73719189 23.46295735 -46.05498831 19.55702213 -44.375 15.625 C-40.10511108 5.77982287 -36.84006329 -0.92125766 -27 -6 C-17.5746235 -9.14179217 -7.13170954 -6.70262328 0 0 Z M-18 42 C-22.17791064 51.15361327 -26.31036069 60.32762153 -30.43164062 69.50683594 C-31.59656327 72.10143636 -32.76197901 74.69581285 -33.92773438 77.29003906 C-35.74946415 81.34473555 -37.56892092 85.4004474 -39.3873291 89.45663452 C-40.11386381 91.07655186 -40.84097047 92.69621284 -41.56872559 94.31558228 C-47.18752032 106.82054821 -52.59837126 119.3961996 -58 132 C-31.6 132 -5.2 132 22 132 C21.10133467 127.50667335 19.74913622 123.92462125 17.82421875 119.83984375 C17.3422403 118.79864128 17.3422403 118.79864128 16.8505249 117.73640442 C16.15971131 116.24438405 15.46669702 114.75338101 14.771698 113.26330566 C12.93385925 109.32080091 11.11409538 105.37001177 9.296875 101.41796875 C8.93069565 100.62178131 8.5645163 99.82559387 8.1872406 99.00527954 C4.81178079 91.63917812 1.59881802 84.21005236 -1.5625 76.75 C-5.09408483 68.41733705 -8.68995442 60.14388657 -12.59765625 51.98046875 C-14.1485235 48.68433584 -15.58140285 45.35496122 -17 42 C-17.33 42 -17.66 42 -18 42 Z " fill="#73737A" transform="translate(196,121)"/>
<path d="M0 0 C1.21943298 0.01705994 2.43886597 0.03411987 3.69525146 0.05169678 C7.18514961 0.10305601 10.67449522 0.16821453 14.1640625 0.23828125 C15.73193512 0.26038918 15.73193512 0.26038918 17.33148193 0.28294373 C29.25283707 0.56533707 29.25283707 0.56533707 33.375 4.6875 C33.52017744 7.5968558 33.56130796 10.407446 33.5 13.3125 C33.49097656 14.11429688 33.48195313 14.91609375 33.47265625 15.7421875 C33.44906223 17.72408523 33.41319065 19.70582981 33.375 21.6875 C25.375 25.6875 25.375 25.6875 -7.625 25.6875 C-7.625 117.0975 -7.625 208.5075 -7.625 302.6875 C4.255 303.0175 16.135 303.3475 28.375 303.6875 C32.375 305.6875 32.375 305.6875 33.375 307.6875 C33.52529677 310.18184832 33.60622109 312.62975298 33.625 315.125 C33.645625 315.80626953 33.66625 316.48753906 33.6875 317.18945312 C33.7270092 322.23181454 33.7270092 322.23181454 32.1036377 324.33331299 C24.60668116 330.20630835 10.16461882 327.97614838 1.15625 327.953125 C-0.71122284 327.95447478 -2.57869534 327.95641792 -4.44616699 327.95892334 C-8.3461443 327.96185986 -12.24602955 327.95762455 -16.14599609 327.94824219 C-21.12205079 327.93684858 -26.09788966 327.94341597 -31.07393646 327.95538712 C-34.92602131 327.9626456 -38.77805577 327.96029953 -42.63014221 327.95513153 C-44.46399461 327.95380605 -46.29785172 327.95540373 -48.13169861 327.96009064 C-70.8862958 328.00549661 -70.8862958 328.00549661 -77.75 323.75 C-80.55667865 319.1657582 -80.49786697 314.92470184 -79.625 309.6875 C-77.82381522 306.68552536 -76.72167268 305.23583634 -73.625 303.6875 C-61.415 303.3575 -49.205 303.0275 -36.625 302.6875 C-36.295 211.2775 -35.965 119.8675 -35.625 25.6875 C-46.515 25.6875 -57.405 25.6875 -68.625 25.6875 C-77.975 22.18125 -77.975 22.18125 -79.625 18.6875 C-80.54856006 13.09226532 -80.68987112 8.23916934 -77.4375 3.5 C-70.43388834 -1.01343863 -60.84070226 0.26745461 -52.75 0.0625 C-51.90205872 0.04037445 -51.05411743 0.0182489 -50.18048096 -0.00454712 C-33.4495374 -0.41685187 -16.7322182 -0.27276453 0 0 Z " fill="#73727A" transform="translate(391.625,63.3125)"/>
<path d="M0 0 C-0.33 0.66 -0.66 1.32 -1 2 C-10.47915266 2.03046537 -19.95830717 2.05092754 -29.4375 2.0625 C-30.48189554 2.06378403 -30.48189554 2.06378403 -31.54738998 2.06509399 C-52.71273181 2.08810176 -73.85196846 1.94180503 -95 1 C-95 0.67 -95 0.34 -95 0 C-63.30486915 -1.21914982 -31.70317694 -0.77901514 0 0 Z " fill="#9F9AA0" transform="translate(417,64)"/>
<path d="M0 0 C4.52049902 -0.36652695 4.52049902 -0.36652695 6.6496582 1.26098633 C8.29009599 3.37359497 8.35260353 4.36791018 8.29296875 7.01171875 C8.28330078 7.76904297 8.27363281 8.52636719 8.26367188 9.30664062 C8.23853516 10.09232422 8.21339844 10.87800781 8.1875 11.6875 C8.17396484 12.48478516 8.16042969 13.28207031 8.14648438 14.10351562 C8.11117089 16.06929967 8.05736447 18.03473582 8 20 C7.67 20 7.34 20 7 20 C6.67 14.72 6.34 9.44 6 4 C4.68 4.33 3.36 4.66 2 5 C1.34 4.34 0.68 3.68 0 3 C0 2.01 0 1.02 0 0 Z " fill="#96949A" transform="translate(417,65)"/>
<path d="M0 0 C0.33 0 0.66 0 1 0 C1.33 9.57 1.66 19.14 2 29 C1.34 29 0.68 29 0 29 C-0.33 28.01 -0.66 27.02 -1 26 C-0.67 25.34 -0.34 24.68 0 24 C0.08471364 22.18658158 0.10721083 20.37005839 0.09765625 18.5546875 C0.09443359 17.47832031 0.09121094 16.40195312 0.08789062 15.29296875 C0.07532227 13.60107422 0.07532227 13.60107422 0.0625 11.875 C0.05573242 10.17150391 0.05573242 10.17150391 0.04882812 8.43359375 C0.03701615 5.62234362 0.02054507 2.8111977 0 0 Z " fill="#6C6A70" transform="translate(381,337)"/>
<path d="M0 0 C3.3 0 6.6 0 10 0 C10 0.33 10 0.66 10 1 C8.948125 0.938125 7.89625 0.87625 6.8125 0.8125 C2.8811218 1.58341352 2.8811218 1.58341352 1.421875 4.515625 C0.1730285 7.31476372 -0.96833811 10.11419922 -2 13 C-2.33 13 -2.66 13 -3 13 C-3 11.02 -3 9.04 -3 7 C-2.34 7 -1.68 7 -1 7 C-0.67 4.69 -0.34 2.38 0 0 Z " fill="#ACAAB0" transform="translate(121,285)"/>
<path d="M0 0 C0.33 0 0.66 0 1 0 C1 1.98 1 3.96 1 6 C2.32 5.34 3.64 4.68 5 4 C5.93423645 7.01031744 6.04449911 7.86650268 5 11 C1.125 9.25 1.125 9.25 0 7 C-0.04022391 4.6670134 -0.04320247 2.33293334 0 0 Z " fill="#7F7F88" transform="translate(312,75)"/>
<path d="M0 0 C2.475 0.495 2.475 0.495 5 1 C6.16552619 5.19589427 6.08954032 5.82091936 4 10 C2.68 6.7 1.36 3.4 0 0 Z " fill="#8B888C" transform="translate(194,198)"/>
<path d="M0 0 C0.99 0 1.98 0 3 0 C2.67 1.98 2.34 3.96 2 6 C0.68 6.33 -0.64 6.66 -2 7 C-2 5.35 -2 3.7 -2 2 C-1.34 2 -0.68 2 0 2 C0 1.34 0 0.68 0 0 Z " fill="#807D82" transform="translate(156,204)"/>
<path d="M0 0 C2 3 2 3 2 6 C2.66 6 3.32 6 4 6 C4 6.99 4 7.98 4 9 C2.68 9 1.36 9 0 9 C0 7.35 0 5.7 0 4 C-0.66 3.67 -1.32 3.34 -2 3 C-1.34 2.01 -0.68 1.02 0 0 Z " fill="#6E6B73" transform="translate(210,153)"/>
<path d="M0 0 C0.99 0.33 1.98 0.66 3 1 C3 1.99 3 2.98 3 4 C3.66 4.33 4.32 4.66 5 5 C5 6.98 5 8.96 5 11 C0 4.63636364 0 4.63636364 0 0 Z " fill="#98959A" transform="translate(214,241)"/>
<path d="M0 0 C2 3 2 3 2 6 C-0.5 8.1875 -0.5 8.1875 -3 10 C-2.49287967 6.28111761 -1.88391785 3.26545761 0 0 Z " fill="#9A989C" transform="translate(72,307)"/>
<path d="M0 0 C4.08072342 0.55144911 4.91330796 0.91330796 8 4 C5.03 3.67 2.06 3.34 -1 3 C-0.67 2.01 -0.34 1.02 0 0 Z " fill="#848286" transform="translate(187,117)"/>
<path d="M0 0 C0.66 0.33 1.32 0.66 2 1 C0.6875 3.5 0.6875 3.5 -1 6 C-1.99 6 -2.98 6 -4 6 C-4.33 6.99 -4.66 7.98 -5 9 C-4.5206753 4.68607774 -3.2542015 2.83430453 0 0 Z " fill="#9F9DA1" transform="translate(317,65)"/>
<path d="" fill="#FFFFFF" transform="translate(0,0)"/>
<path d="" fill="#FFFFFF" transform="translate(0,0)"/>
<path d="" fill="#FFFFFF" transform="translate(0,0)"/>
<path d="" fill="#FFFFFF" transform="translate(0,0)"/>
<path d="" fill="#FFFFFF" transform="translate(0,0)"/>
<path d="" fill="#FFFFFF" transform="translate(0,0)"/>
<path d="" fill="#FFFFFF" transform="translate(0,0)"/>
<path d="" fill="#FFFFFF" transform="translate(0,0)"/>
<path d="" fill="#FFFFFF" transform="translate(0,0)"/>
<path d="" fill="#FFFFFF" transform="translate(0,0)"/>
<path d="" fill="#FFFFFF" transform="translate(0,0)"/>
<path d="" fill="#FFFFFF" transform="translate(0,0)"/>
<path d="" fill="#FFFFFF" transform="translate(0,0)"/>
<path d="" fill="#FFFFFF" transform="translate(0,0)"/>
<path d="" fill="#FFFFFF" transform="translate(0,0)"/>
<path d="" fill="#FFFFFF" transform="translate(0,0)"/>
<path d="" fill="#FFFFFF" transform="translate(0,0)"/>
<path d="" fill="#FFFFFF" transform="translate(0,0)"/>
<path d="" fill="#FFFFFF" transform="translate(0,0)"/>
<path d="" fill="#FFFFFF" transform="translate(0,0)"/>
<path d="" fill="#FFFFFF" transform="translate(0,0)"/>
<path d="" fill="#FFFFFF" transform="translate(0,0)"/>
<path d="" fill="#FFFFFF" transform="translate(0,0)"/>
<path d="" fill="#FFFFFF" transform="translate(0,0)"/>
<path d="" fill="#FFFFFF" transform="translate(0,0)"/>
<path d="" fill="#FFFFFF" transform="translate(0,0)"/>
<path d="" fill="#FFFFFF" transform="translate(0,0)"/>
<path d="" fill="#FFFFFF" transform="translate(0,0)"/>
<path d="" fill="#FFFFFF" transform="translate(0,0)"/>
<path d="" fill="#FFFFFF" transform="translate(0,0)"/>
<path d="" fill="#FFFFFF" transform="translate(0,0)"/>
<path d="" fill="#FFFFFF" transform="translate(0,0)"/>
<path d="" fill="#FFFFFF" transform="translate(0,0)"/>
<path d="" fill="#FFFFFF" transform="translate(0,0)"/>
<path d="" fill="#FFFFFF" transform="translate(0,0)"/>
<path d="" fill="#FFFFFF" transform="translate(0,0)"/>
<path d="" fill="#FFFFFF" transform="translate(0,0)"/>
<path d="" fill="#FFFFFF" transform="translate(0,0)"/>
<path d="" fill="#FFFFFF" transform="translate(0,0)"/>
<path d="" fill="#FFFFFF" transform="translate(0,0)"/>
<path d="" fill="#FFFFFF" transform="translate(0,0)"/>
<path d="" fill="#FFFFFF" transform="translate(0,0)"/>
<path d="" fill="#FFFFFF" transform="translate(0,0)"/>
<path d="" fill="#FFFFFF" transform="translate(0,0)"/>
<path d="" fill="#FFFFFF" transform="translate(0,0)"/>
<path d="" fill="#FFFFFF" transform="translate(0,0)"/>
<path d="" fill="#FFFFFF" transform="translate(0,0)"/>
<path d="" fill="#FFFFFF" transform="translate(0,0)"/>
<path d="" fill="#FFFFFF" transform="translate(0,0)"/>
<path d="" fill="#FFFFFF" transform="translate(0,0)"/>
<path d="" fill="#FFFFFF" transform="translate(0,0)"/>
<path d="" fill="#FFFFFF" transform="translate(0,0)"/>
<path d="" fill="#FFFFFF" transform="translate(0,0)"/>
<path d="" fill="#FFFFFF" transform="translate(0,0)"/>
<path d="" fill="#FFFFFF" transform="translate(0,0)"/>
<path d="" fill="#FFFFFF" transform="translate(0,0)"/>
<path d="" fill="#FFFFFF" transform="translate(0,0)"/>
<path d="" fill="#FFFFFF" transform="translate(0,0)"/>
<path d="" fill="#FFFFFF" transform="translate(0,0)"/>
<path d="" fill="#FFFFFF" transform="translate(0,0)"/>
<path d="" fill="#FFFFFF" transform="translate(0,0)"/>
<path d="" fill="#FFFFFF" transform="translate(0,0)"/>
<path d="" fill="#FFFFFF" transform="translate(0,0)"/>
<path d="" fill="#FFFFFF" transform="translate(0,0)"/>
<path d="" fill="#FFFFFF" transform="translate(0,0)"/>
<path d="" fill="#FFFFFF" transform="translate(0,0)"/>
<path d="" fill="#FFFFFF" transform="translate(0,0)"/>
<path d="" fill="#FFFFFF" transform="translate(0,0)"/>
<path d="" fill="#FFFFFF" transform="translate(0,0)"/>
<path d="" fill="#FFFFFF" transform="translate(0,0)"/>
<path d="" fill="#FFFFFF" transform="translate(0,0)"/>
<path d="" fill="#FFFFFF" transform="translate(0,0)"/>
<path d="" fill="#FFFFFF" transform="translate(0,0)"/>
<path d="" fill="#FFFFFF" transform="translate(0,0)"/>
<path d="" fill="#FFFFFF" transform="translate(0,0)"/>
<path d="" fill="#FFFFFF" transform="translate(0,0)"/>
<path d="" fill="#FFFFFF" transform="translate(0,0)"/>
<path d="" fill="#FFFFFF" transform="translate(0,0)"/>
<path d="" fill="#FFFFFF" transform="translate(0,0)"/>
<path d="" fill="#FFFFFF" transform="translate(0,0)"/>
<path d="" fill="#FFFFFF" transform="translate(0,0)"/>
<path d="" fill="#FFFFFF" transform="translate(0,0)"/>
<path d="" fill="#FFFFFF" transform="translate(0,0)"/>
<path d="" fill="#FFFFFF" transform="translate(0,0)"/>
<path d="" fill="#FFFFFF" transform="translate(0,0)"/>
<path d="" fill="#FFFFFF" transform="translate(0,0)"/>
<path d="" fill="#FFFFFF" transform="translate(0,0)"/>
<path d="" fill="#FFFFFF" transform="translate(0,0)"/>
<path d="" fill="#FFFFFF" transform="translate(0,0)"/>
<path d="" fill="#FFFFFF" transform="translate(0,0)"/>
</svg>
